<?xml version="1.0" encoding="UTF-8" standalone="no"?>
<!-- Created with Inkscape (http://www.inkscape.org/) -->

<svg
   xmlns:dc="http://purl.org/dc/elements/1.1/"
   xmlns:cc="http://creativecommons.org/ns#"
   xmlns:rdf="http://www.w3.org/1999/02/22-rdf-syntax-ns#"
   xmlns:svg="http://www.w3.org/2000/svg"
   xmlns="http://www.w3.org/2000/svg"
   xmlns:sodipodi="http://sodipodi.sourceforge.net/DTD/sodipodi-0.dtd"
   xmlns:inkscape="http://www.inkscape.org/namespaces/inkscape"
   width="210mm"
   height="297mm"
   viewBox="0 0 210 297"
   version="1.1"
   id="svg877"
   inkscape:version="0.92.2 5c3e80d, 2017-08-06"
   sodipodi:docname="top.svg"
   inkscape:export-filename="/Users/pod/temp/plate.png"
   inkscape:export-xdpi="214.35295"
   inkscape:export-ydpi="214.35295">
  <defs
     id="defs871" />
  <sodipodi:namedview
     id="base"
     pagecolor="#ffffff"
     bordercolor="#666666"
     borderopacity="1.0"
     inkscape:pageopacity="1"
     inkscape:pageshadow="2"
     inkscape:zoom="0.9050967"
     inkscape:cx="171.24799"
     inkscape:cy="221.04393"
     inkscape:document-units="mm"
     inkscape:current-layer="layer1"
     showgrid="false"
     showborder="false"
     showguides="false"
     inkscape:guide-bbox="true"
     inkscape:window-width="820"
     inkscape:window-height="924"
     inkscape:window-x="1756"
     inkscape:window-y="37"
     inkscape:window-maximized="0"
     inkscape:snap-bbox="true"
     inkscape:bbox-paths="true"
     inkscape:bbox-nodes="true"
     inkscape:snap-bbox-edge-midpoints="true"
     inkscape:snap-bbox-midpoints="true"
     inkscape:snap-to-guides="true"
     inkscape:snap-grids="true"
     inkscape:snap-nodes="true"
     inkscape:snap-object-midpoints="true"
     inkscape:snap-center="true"
     inkscape:object-paths="true"
     inkscape:snap-intersection-paths="true"
     inkscape:snap-smooth-nodes="true"
     inkscape:snap-midpoints="true"
     inkscape:snap-global="true"
     inkscape:pagecheckerboard="false">
    <sodipodi:guide
       position="0,0"
       orientation="0,1"
       id="guide1422"
       inkscape:locked="false"
       inkscape:label=""
       inkscape:color="rgb(0,0,255)" />
    <sodipodi:guide
       position="0,0"
       orientation="1,0"
       id="guide1424"
       inkscape:locked="false"
       inkscape:label=""
       inkscape:color="rgb(0,0,255)" />
    <sodipodi:guide
       position="115.57,0"
       orientation="1,0"
       id="guide1426"
       inkscape:locked="false"
       inkscape:label=""
       inkscape:color="rgb(0,0,255)" />
    <sodipodi:guide
       position="0,107.95"
       orientation="0,1"
       id="guide1428"
       inkscape:locked="false"
       inkscape:label=""
       inkscape:color="rgb(0,0,255)" />
    <sodipodi:guide
       position="48.285061,48.285065"
       orientation="-0.70710678,0.70710678"
       id="guide1553"
       inkscape:locked="false" />
    <sodipodi:guide
       position="115.57,0"
       orientation="0.70710678,0.70710678"
       id="guide2042"
       inkscape:locked="false" />
    <sodipodi:guide
       position="57.784999,57.785001"
       orientation="1,0"
       id="guide2044"
       inkscape:locked="false" />
    <sodipodi:guide
       position="36.209677,86.360142"
       orientation="0,1"
       id="guide2102"
       inkscape:locked="false" />
    <sodipodi:guide
       position="19.684999,95.885001"
       orientation="1,0"
       id="guide106"
       inkscape:locked="false"
       inkscape:label=""
       inkscape:color="rgb(0,0,255)" />
    <sodipodi:guide
       position="36.22006,93.370063"
       orientation="-0.70710678,0.70710678"
       id="guide15314"
       inkscape:locked="false" />
    <sodipodi:guide
       position="17.170061,93.370063"
       orientation="-0.70710678,0.70710678"
       id="guide15316"
       inkscape:locked="false" />
    <sodipodi:guide
       position="29.210138,86.360144"
       orientation="1,0"
       id="guide15320"
       inkscape:locked="false" />
    <sodipodi:guide
       position="10.185061,86.385065"
       orientation="1,0"
       id="guide15322"
       inkscape:locked="false" />
    <sodipodi:guide
       position="-3.2238805,101.55224"
       orientation="0,1"
       id="guide15324"
       inkscape:locked="false" />
    <sodipodi:guide
       position="-12.402344,56.223957"
       orientation="1,0"
       id="guide111"
       inkscape:locked="false" />
    <sodipodi:guide
       position="55.259675,93.360003"
       orientation="-0.70710678,0.70710678"
       id="guide11437"
       inkscape:locked="false" />
    <sodipodi:guide
       position="60.309497,93.360243"
       orientation="0.70710678,0.70710678"
       id="guide11439"
       inkscape:locked="false" />
    <sodipodi:guide
       position="41.260013,93.360243"
       orientation="0.70710678,0.70710678"
       id="guide11441"
       inkscape:locked="false" />
    <sodipodi:guide
       position="74.309674,93.360243"
       orientation="-0.70710678,0.70710678"
       id="guide11443"
       inkscape:locked="false" />
    <sodipodi:guide
       position="79.360011,93.360243"
       orientation="0.70710678,0.70710678"
       id="guide11445"
       inkscape:locked="false" />
    <sodipodi:guide
       position="98.409491,93.360003"
       orientation="0.70710678,0.70710678"
       id="guide11447"
       inkscape:locked="false" />
    <sodipodi:guide
       position="112.40968,93.360243"
       orientation="-0.70710678,0.70710678"
       id="guide11449"
       inkscape:locked="false" />
    <sodipodi:guide
       position="67.310124,67.310132"
       orientation="0,1"
       id="guide11451"
       inkscape:locked="false" />
    <sodipodi:guide
       position="67.309717,48.260283"
       orientation="0,1"
       id="guide11453"
       inkscape:locked="false" />
    <sodipodi:guide
       position="48.259867,67.310134"
       orientation="1,0"
       id="guide11455"
       inkscape:locked="false" />
    <sodipodi:guide
       position="86.359586,67.310153"
       orientation="1,0"
       id="guide11457"
       inkscape:locked="false" />
    <sodipodi:guide
       position="105.40935,86.360144"
       orientation="1,0"
       id="guide11459"
       inkscape:locked="false" />
    <sodipodi:guide
       position="3.1610473,93.360239"
       orientation="0.70710678,0.70710678"
       id="guide11461"
       inkscape:locked="false" />
  </sodipodi:namedview>
  <metadata
     id="metadata874">
    <rdf:RDF>
      <cc:Work
         rdf:about="">
        <dc:format>image/svg+xml</dc:format>
        <dc:type
           rdf:resource="http://purl.org/dc/dcmitype/StillImage" />
        <dc:title />
      </cc:Work>
    </rdf:RDF>
  </metadata>
  <g
     inkscape:label="Layer 1"
     inkscape:groupmode="layer"
     id="layer1">
    <path
       style="opacity:1;fill:#cccccc;fill-opacity:1;stroke:none;stroke-width:2.46500015;stroke-linecap:square;stroke-linejoin:miter;stroke-miterlimit:4;stroke-dasharray:none"
       d="m 5.0803103,189.04996 c -2.7582547,0.002 -5.01058563,2.20548 -5.07410863,4.963 H 1.6666667e-6 v 37.66747 25.22895 35.12757 H 0.00620167 c 0.06353,2.75751 2.31585493,4.96054 5.07410863,4.963 H 110.49041 c 2.75826,-0.003 5.01059,-2.20549 5.07412,-4.963 h 0.006 v -0.11729 -35.01028 -25.22895 -37.55016 -0.11731 h -0.006 c -0.0635,-2.75752 -2.31586,-4.96054 -5.07412,-4.963 z m 5.1045977,5.37584 c 0.552238,3e-5 0.999906,0.4477 0.999939,0.99994 2.52e-4,0.55244 -0.4475,1.00042 -0.999939,1.00046 -0.5524387,-4e-5 -1.0001907,-0.44802 -0.9999387,-1.00046 3.3e-5,-0.55224 0.447701,-0.99991 0.9999387,-0.99994 z m 19.025195,0 c 0.552238,3e-5 0.999906,0.4477 0.99994,0.99994 2.51e-4,0.55244 -0.4475,1.00042 -0.99994,1.00046 -0.552439,-4e-5 -1.000191,-0.44802 -0.99994,-1.00046 3.5e-5,-0.55224 0.447702,-0.99991 0.99994,-0.99994 z M 3.1605306,203.63976 17.160193,203.64 v 13.99994 H 3.1605306 Z m 19.0494834,0 13.999662,2.4e-4 v 13.99994 H 22.210014 Z m 19.05,0 13.999662,2.4e-4 v 13.99994 H 41.260014 Z m 19.049484,0 h 14.000178 v 14.00018 H 60.309498 Z m 19.050515,0 h 13.999663 v 14.00018 H 79.360013 Z m 19.04948,2.4e-4 14.000187,-2.4e-4 v 14.00018 H 98.409493 Z M 3.1605306,222.68976 H 17.160193 v 14.00018 H 3.1605306 Z m 19.0494834,0 h 13.999662 v 14.00018 H 22.210014 Z m 19.05,0 h 13.999662 v 14.00018 H 41.260014 Z m 19.049484,0 h 14.000178 v 14.00018 H 60.309498 Z m 19.050515,0 h 13.999663 v 14.00018 H 79.360013 Z m 19.04948,0 h 14.000187 v 14.00018 H 98.409493 Z m -95.2489624,19.05 H 17.160193 v 14.00018 H 3.1605306 Z m 19.0494834,0 h 13.999662 v 14.00018 H 22.210014 Z m 19.05,0 h 13.999662 v 14.00018 H 41.260014 Z m 19.049484,0 h 14.000178 v 14.00018 H 60.309498 Z m 19.050515,0 h 13.999663 v 14.00018 H 79.360013 Z m 19.04948,0 h 14.000187 v 14.00018 H 98.409493 Z m -95.2489624,19.05 H 17.160193 v 14.00019 H 3.1605306 Z m 19.0494834,0 h 13.999662 v 14.00019 H 22.210014 Z m 19.05,0 h 13.999662 v 14.00019 H 41.260014 Z m 19.049484,0 h 14.000178 v 14.00019 H 60.309498 Z m 19.050515,0 h 13.999663 v 14.00019 H 79.360013 Z m 19.04948,0 h 14.000187 v 14.00019 H 98.409493 Z m -95.2484934,19.05 H 17.160193 v 14.00019 H 3.1605306 Z m 19.0490144,0 h 13.999662 v 14.00019 H 22.210014 Z m 19.05,0 h 13.999662 v 14.00019 H 41.260014 Z m 19.049484,0 h 14.000178 v 14.00019 H 60.309498 Z m 19.050515,0 h 13.999663 v 14.00019 H 79.360013 Z m 19.04948,0 h 14.000187 l 2.6e-4,14.00019 H 98.409433 Z"
       id="path1430"
       inkscape:connector-curvature="0"
       sodipodi:nodetypes="ccccccccccccccccccccccccccccccccccccccccccccccccccccccccccccccccccccccccccccccccccccccccccccccccccccccccccccccccccccccccccccccccccccccccccccccccccccccccccccccccccccccccccccccccccc"
       inkscape:export-filename="/Users/pod/temp/plate.png"
       inkscape:export-xdpi="214.35295"
       inkscape:export-ydpi="214.35295" />
    <path
       style="opacity:1;fill:#f2f2f2;fill-opacity:1;stroke:none;stroke-width:2.46499991;stroke-linecap:square;stroke-linejoin:miter;stroke-miterlimit:4;stroke-dasharray:none"
       d="m 1.5459354,201.66935 c -0.2136911,0 -0.3855061,0.17233 -0.3855061,0.38602 v 17.2284 c 0,0.2137 0.171815,0.38603 0.3855061,0.38603 H 18.77434 c 0.213691,0 0.386023,-0.17233 0.386023,-0.38603 v -17.2284 c 0,-0.21369 -0.172332,-0.38602 -0.386023,-0.38602 z m 19.0499996,0 c -0.213692,0 -0.386023,0.17233 -0.386024,0.38602 v 17.2284 c 0,0.2137 0.172332,0.38603 0.386024,0.38603 H 37.82434 c 0.21369,0 0.386024,-0.17233 0.386024,-0.38603 v -17.2284 c 0,-0.21369 -0.172334,-0.38602 -0.386024,-0.38602 z m 19.05,0 c -0.213691,0 -0.385506,0.17233 -0.385506,0.38602 v 17.2284 c 0,0.2137 0.171815,0.38603 0.385506,0.38603 h 17.228404 c 0.213691,0 0.386025,-0.17233 0.386025,-0.38603 v -17.2284 c 0,-0.21369 -0.172334,-0.38602 -0.386025,-0.38602 z m 19.05,0 c -0.213691,0 -0.386025,0.17233 -0.386025,0.38602 v 17.2284 c 0,0.2137 0.172334,0.38603 0.386025,0.38603 h 17.228404 c 0.213691,0 0.386025,-0.17233 0.386025,-0.38603 v -17.2284 c 0,-0.21369 -0.172334,-0.38602 -0.386025,-0.38602 z m 19.05,0 c -0.213691,0 -0.385506,0.17233 -0.385506,0.38602 v 17.2284 c 0,0.2137 0.171815,0.38603 0.385506,0.38603 h 17.228401 c 0.21369,0 0.38603,-0.17233 0.38603,-0.38603 v -17.2284 c 0,-0.21369 -0.17234,-0.38602 -0.38603,-0.38602 z m 19.050001,0 c -0.21369,0 -0.38603,0.17233 -0.38603,0.38602 v 17.2284 c 0,0.2137 0.17234,0.38603 0.38603,0.38603 h 17.228394 c 0.21369,0 0.38603,-0.17233 0.38603,-0.38603 v -17.2284 c 0,-0.21369 -0.17234,-0.38602 -0.38603,-0.38602 z m -95.2500006,19.05 c -0.2136911,0 -0.3855061,0.17233 -0.3855061,0.38602 v 17.2284 c 0,0.2137 0.171815,0.38551 0.3855061,0.38551 H 18.77434 c 0.213691,0 0.386023,-0.17181 0.386023,-0.38551 v -17.2284 c 0,-0.21369 -0.172332,-0.38602 -0.386023,-0.38602 z m 19.0499996,0 c -0.213692,0 -0.386023,0.17233 -0.386024,0.38602 v 17.2284 c 0,0.2137 0.172332,0.38551 0.386024,0.38551 H 37.82434 c 0.21369,0 0.386024,-0.17181 0.386024,-0.38551 v -17.2284 c 0,-0.21369 -0.172334,-0.38602 -0.386024,-0.38602 z m 19.05,0 c -0.213691,0 -0.385506,0.17233 -0.385506,0.38602 v 17.2284 c 0,0.2137 0.171815,0.38551 0.385506,0.38551 h 17.228404 c 0.213691,0 0.386025,-0.17181 0.386025,-0.38551 v -17.2284 c 0,-0.21369 -0.172334,-0.38602 -0.386025,-0.38602 z m 19.05,0 c -0.213691,0 -0.386025,0.17233 -0.386025,0.38602 v 17.2284 c 0,0.2137 0.172334,0.38551 0.386025,0.38551 h 17.228404 c 0.213691,0 0.386025,-0.17181 0.386025,-0.38551 v -17.2284 c 0,-0.21369 -0.172334,-0.38602 -0.386025,-0.38602 z m 19.05,0 c -0.213691,0 -0.385506,0.17233 -0.385506,0.38602 v 17.2284 c 0,0.2137 0.171815,0.38551 0.385506,0.38551 h 17.228401 c 0.21369,0 0.38603,-0.17181 0.38603,-0.38551 v -17.2284 c 0,-0.21369 -0.17234,-0.38602 -0.38603,-0.38602 z m 19.050001,0 c -0.21369,0 -0.38603,0.17233 -0.38603,0.38602 v 17.2284 c 0,0.2137 0.17234,0.38551 0.38603,0.38551 h 17.228394 c 0.21369,0 0.38603,-0.17181 0.38603,-0.38551 v -17.2284 c 0,-0.21369 -0.17234,-0.38602 -0.38603,-0.38602 z m -95.2500006,19.05 c -0.2136912,0 -0.3855061,0.17233 -0.3855061,0.38602 v 17.2284 c 0,0.2137 0.1718149,0.38603 0.3855061,0.38603 H 18.77434 c 0.213691,0 0.386023,-0.17233 0.386023,-0.38603 v -17.2284 c 0,-0.21369 -0.172332,-0.38602 -0.386023,-0.38602 z m 19.0499996,0 c -0.213691,0 -0.386024,0.17233 -0.386024,0.38602 v 17.2284 c 0,0.2137 0.172333,0.38603 0.386024,0.38603 H 37.82434 c 0.21369,0 0.386024,-0.17233 0.386024,-0.38603 v -17.2284 c 0,-0.21369 -0.172334,-0.38602 -0.386024,-0.38602 z m 19.05,0 c -0.213691,0 -0.385506,0.17233 -0.385506,0.38602 v 17.2284 c 0,0.2137 0.171815,0.38603 0.385506,0.38603 h 17.228404 c 0.213691,0 0.386025,-0.17233 0.386025,-0.38603 v -17.2284 c 0,-0.21369 -0.172334,-0.38602 -0.386025,-0.38602 z m 19.05,0 c -0.213691,0 -0.386025,0.17233 -0.386025,0.38602 v 17.2284 c 0,0.2137 0.172334,0.38603 0.386025,0.38603 h 17.228404 c 0.213691,0 0.386025,-0.17233 0.386025,-0.38603 v -17.2284 c 0,-0.21369 -0.172334,-0.38602 -0.386025,-0.38602 z m 19.05,0 c -0.213691,0 -0.385506,0.17233 -0.385506,0.38602 v 17.2284 c 0,0.2137 0.171815,0.38603 0.385506,0.38603 h 17.228401 c 0.21369,0 0.38603,-0.17233 0.38603,-0.38603 v -17.2284 c 0,-0.21369 -0.17234,-0.38602 -0.38603,-0.38602 z m 19.050001,0 c -0.21369,0 -0.38603,0.17233 -0.38603,0.38602 v 17.2284 c 0,0.2137 0.17234,0.38603 0.38603,0.38603 h 17.228394 c 0.21369,0 0.38603,-0.17233 0.38603,-0.38603 v -17.2284 c 0,-0.21369 -0.17234,-0.38602 -0.38603,-0.38602 z m -95.2500006,19.05 c -0.2136912,0 -0.3855061,0.17233 -0.3855061,0.38602 v 17.22839 c 0,0.21371 0.1718149,0.38553 0.3855061,0.38553 H 18.77434 c 0.213691,0 0.386023,-0.17182 0.386023,-0.38553 v -17.22839 c 0,-0.21369 -0.172332,-0.38602 -0.386023,-0.38602 z m 19.0499996,0 c -0.213691,0 -0.386024,0.17233 -0.386024,0.38602 v 17.22839 c 0,0.21371 0.172333,0.38553 0.386024,0.38553 H 37.82434 c 0.21369,0 0.386024,-0.17182 0.386024,-0.38553 v -17.22839 c 0,-0.21369 -0.172334,-0.38602 -0.386024,-0.38602 z m 19.05,0 c -0.213691,0 -0.385506,0.17233 -0.385506,0.38602 v 17.22839 c 0,0.21371 0.171815,0.38553 0.385506,0.38553 h 17.228404 c 0.213691,0 0.386025,-0.17182 0.386025,-0.38553 v -17.22839 c 0,-0.21369 -0.172334,-0.38602 -0.386025,-0.38602 z m 19.05,0 c -0.213691,0 -0.386025,0.17233 -0.386025,0.38602 v 17.22839 c 0,0.21371 0.172334,0.38553 0.386025,0.38553 h 17.228404 c 0.213691,0 0.386025,-0.17182 0.386025,-0.38553 v -17.22839 c 0,-0.21369 -0.172334,-0.38602 -0.386025,-0.38602 z m 19.05,0 c -0.213691,0 -0.385506,0.17233 -0.385506,0.38602 v 17.22839 c 0,0.21371 0.171815,0.38553 0.385506,0.38553 h 17.228401 c 0.21369,0 0.38603,-0.17182 0.38603,-0.38553 v -17.22839 c 0,-0.21369 -0.17234,-0.38602 -0.38603,-0.38602 z m 19.050001,0 c -0.21369,0 -0.38603,0.17233 -0.38603,0.38602 v 17.22839 c 0,0.21371 0.17234,0.38553 0.38603,0.38553 h 17.228394 c 0.21369,0 0.38603,-0.17182 0.38603,-0.38553 v -17.22839 c 0,-0.21369 -0.17234,-0.38602 -0.38603,-0.38602 z M 1.5459354,277.86934 c -0.2136912,0 -0.3855061,0.17235 -0.3855061,0.38603 v 17.22839 c 0,0.21371 0.1718149,0.38603 0.3855061,0.38603 H 18.77434 c 0.213691,0 0.386023,-0.17232 0.386023,-0.38603 v -17.22839 c 0,-0.21368 -0.172332,-0.38603 -0.386023,-0.38603 z m 19.0499996,0 c -0.213691,0 -0.386023,0.17235 -0.386024,0.38603 v 17.22839 c 0,0.21371 0.172333,0.38603 0.386024,0.38603 H 37.82434 c 0.21369,0 0.386024,-0.17232 0.386024,-0.38603 v -17.22839 c 0,-0.21368 -0.172334,-0.38603 -0.386024,-0.38603 z m 19.05,0 c -0.213691,0 -0.385506,0.17235 -0.385506,0.38603 v 17.22839 c 0,0.21371 0.171815,0.38603 0.385506,0.38603 h 17.228404 c 0.213691,0 0.386025,-0.17232 0.386025,-0.38603 v -17.22839 c 0,-0.21368 -0.172334,-0.38603 -0.386025,-0.38603 z m 19.05,0 c -0.213691,0 -0.386025,0.17235 -0.386025,0.38603 v 17.22839 c 0,0.21371 0.172334,0.38603 0.386025,0.38603 h 17.228404 c 0.213691,0 0.386025,-0.17232 0.386025,-0.38603 v -17.22839 c 0,-0.21368 -0.172334,-0.38603 -0.386025,-0.38603 z m 19.05,0 c -0.213691,0 -0.385506,0.17235 -0.385506,0.38603 v 17.22839 c 0,0.21371 0.171815,0.38603 0.385506,0.38603 h 17.228401 c 0.21369,0 0.38603,-0.17232 0.38603,-0.38603 v -17.22839 c 0,-0.21368 -0.17234,-0.38603 -0.38603,-0.38603 z m 19.050001,0 c -0.21369,0 -0.38603,0.17235 -0.38603,0.38603 v 17.22839 c 0,0.21371 0.17234,0.38603 0.38603,0.38603 h 17.228394 c 0.21369,0 0.38603,-0.17232 0.38603,-0.38603 v -17.22839 c 0,-0.21368 -0.17234,-0.38603 -0.38603,-0.38603 z"
       id="rect2060"
       inkscape:connector-curvature="0"
       inkscape:export-filename="/Users/pod/temp/plate.png"
       inkscape:export-xdpi="214.35295"
       inkscape:export-ydpi="214.35295" />
    <rect
       y="216.61034"
       x="-329.3053"
       height="5"
       width="57.295906"
       id="rect41"
       style="opacity:1;fill:#ffff00;fill-opacity:1;stroke:none;stroke-width:4;stroke-linecap:square;stroke-linejoin:miter;stroke-miterlimit:4;stroke-dasharray:none" />
    <rect
       style="opacity:1;fill:#000000;fill-opacity:1;stroke:none;stroke-width:4;stroke-linecap:square;stroke-linejoin:miter;stroke-miterlimit:4;stroke-dasharray:none"
       id="rect39"
       width="57.295906"
       height="1.6"
       x="-329.3053"
       y="216.61034" />
    <rect
       y="221.61034"
       x="-329.3053"
       height="1.6"
       width="57.295906"
       id="rect43"
       style="opacity:1;fill:#000000;fill-opacity:1;stroke:none;stroke-width:4;stroke-linecap:square;stroke-linejoin:miter;stroke-miterlimit:4;stroke-dasharray:none" />
    <path
       style="opacity:1;fill:#999999;fill-opacity:1;stroke:none;stroke-width:4;stroke-linecap:square;stroke-linejoin:miter;stroke-miterlimit:4;stroke-dasharray:none"
       d="m -316.16779,218.51037 c -0.13597,0 -0.24545,0.10948 -0.24545,0.24546 v 4.45451 h -0.14986 v 0.54984 h 0.39531 1.55909 0.39531 v -0.54984 h -0.14986 v -4.45451 c 0,-0.13598 -0.10946,-0.24546 -0.24545,-0.24546 z"
       id="rect45"
       inkscape:connector-curvature="0" />
    <path
       style="opacity:1;fill:#333333;fill-opacity:1;stroke:none;stroke-width:2.46500015;stroke-linecap:square;stroke-linejoin:miter;stroke-miterlimit:4;stroke-dasharray:none"
       d="M 5.0797933,189.04995 C 2.2654735,189.04995 0,191.31543 0,194.12975 v 97.79041 c 0,2.81432 2.2654735,5.07978 5.0797933,5.07978 h 12.0793657 5.049821 14.00018 5.049819 13.999662 5.049822 14.001213 5.049821 13.999662 5.049819 12.080922 c 2.81432,0 5.0803,-2.26546 5.0803,-5.07978 v -97.79041 c 0,-2.81432 -2.26598,-5.0798 -5.0803,-5.0798 H 63.159967 v 11.58999 H 52.459847 V 189.04995 H 25.059969 v 11.58999 H 14.359847 v -11.58999 z m 0,1.99988 h 7.0801877 v 12.58993 h 15.050245 v -12.58993 h 23.049753 v 12.58993 h 4.999697 v 14.00018 h -4.999697 v 1.49965 h -3.999753 v -1.49965 H 31.20998 v 1.49965 h -3.999754 v -1.49965 H 12.159981 l 5.17e-4,1.49965 H 8.1602254 v -1.49965 h -4.999178 v -14.00018 l -1.1611695,-1.16065 v -8.34936 c 0,-1.70632 1.3735947,-3.07991 3.0799154,-3.07992 z m 60.0800537,0 H 110.4899 c 1.70631,0 3.07991,1.3736 3.07991,3.07992 v 8.34936 l -1.15962,1.16065 v 14.00018 h -5.00073 v 1.49965 h -3.99975 v -1.49965 H 88.359979 v 1.49965 h -3.999754 v -1.49965 H 69.309463 v 1.49965 h -3.999756 v -1.49965 h -4.999178 v -14.00018 h 4.849318 z m -45.457691,27.99002 c 0.607259,1.8e-4 1.099495,0.49242 1.099675,1.09968 1.05e-4,0.60746 -0.492215,1.10001 -1.099675,1.10019 -0.607663,1e-4 -1.100296,-0.49253 -1.100191,-1.10019 1.8e-4,-0.60746 0.49273,-1.09978 1.100191,-1.09968 z m 76.201033,0 c 0.607258,1.8e-4 1.099494,0.49242 1.099674,1.09968 1.06e-4,0.60746 -0.492215,1.10001 -1.099674,1.10019 -0.607663,1e-4 -1.100296,-0.49253 -1.100191,-1.10019 1.8e-4,-0.60747 0.492729,-1.09978 1.100191,-1.09968 z m -38.10155,0.008 c 0.607459,-1.1e-4 1.10001,0.49222 1.10019,1.09968 1.06e-4,0.60766 -0.492527,1.1003 -1.10019,1.10019 -0.607462,-1.8e-4 -1.09978,-0.49273 -1.099675,-1.10019 1.8e-4,-0.60726 0.492416,-1.0995 1.099675,-1.09968 z m -49.6414136,2.14199 h 4.0002726 v 1.49965 h 15.049728 v -1.49965 h 3.999754 v 1.49965 h 15.050246 v -1.49965 h 3.999753 v 1.49965 h 4.999697 v 14.00018 h -4.999697 v 1.50016 h -3.999753 v -1.50016 H 31.20998 v 1.50016 h -3.999754 v -1.50016 H 12.160498 v 1.50016 H 8.1602254 v -1.50016 h -4.999178 v -14.00018 h 4.999178 z m 57.1494816,0 h 3.999756 v 1.49965 h 15.050762 v -1.49965 h 3.999754 v 1.49965 h 15.049731 v -1.49965 h 3.99975 v 1.49965 h 5.00073 v 14.00018 h -5.00073 v 1.50016 h -3.99975 v -1.50016 H 88.359979 v 1.50016 h -3.999754 v -1.50016 H 69.309463 v 1.50016 h -3.999756 v -1.50016 h -4.999178 v -14.00018 h 4.999178 z M 8.1602254,240.23959 h 4.0002726 v 1.50017 h 15.049728 v -1.50017 h 3.999754 v 1.50017 h 15.050246 v -1.50017 h 3.999753 v 1.50017 h 4.999697 v 14.00018 h -4.999697 v 1.49965 h -3.999753 v -1.49965 H 31.20998 v 1.49965 h -3.999754 v -1.49965 H 12.160498 v 1.49965 H 8.1602254 v -1.49965 h -4.999178 v -14.00018 h 4.999178 z m 57.1494816,0 h 3.999756 v 1.50017 h 15.050762 v -1.50017 h 3.999754 v 1.50017 h 15.049731 v -1.50017 h 3.99975 v 1.50017 h 5.00073 v 14.00018 h -5.00073 v 1.49965 h -3.99975 v -1.49965 H 88.359979 v 1.49965 h -3.999754 v -1.49965 H 69.309463 v 1.49965 h -3.999756 v -1.49965 h -4.999178 v -14.00018 h 4.999178 z m -7.524605,7.40058 a 1.1,1.1 0 0 1 1.099675,1.09968 1.1,1.1 0 0 1 -1.099675,1.10019 1.1,1.1 0 0 1 -1.10019,-1.10019 1.1,1.1 0 0 1 1.10019,-1.09968 z M 8.1602254,259.29011 h 4.0002726 v 1.49965 h 15.049728 v -1.49965 h 3.999754 v 1.49965 h 15.050246 v -1.49965 h 3.999753 v 1.49965 h 4.999697 v 14.00019 h -4.999697 v 1.50016 h -3.999753 v -1.50016 H 31.20998 v 1.50016 h -3.999754 v -1.50016 H 12.160498 v 1.50016 H 8.1602254 v -1.50016 h -4.999178 v -14.00019 h 4.999178 z m 57.1494816,0 h 3.999756 v 1.49965 h 15.050762 v -1.49965 h 3.999754 v 1.49965 h 15.049731 v -1.49965 h 3.99975 v 1.49965 h 5.00073 v 14.00019 h -5.00073 v 1.50016 h -3.99975 v -1.50016 H 88.359979 v 1.50016 h -3.999754 v -1.50016 H 69.309463 v 1.50016 h -3.999756 v -1.50016 h -4.999178 v -14.00019 h 4.999178 z m -7.508068,16.90697 c 0.607663,-1.1e-4 1.100296,0.49252 1.10019,1.10019 -1.88e-4,0.60746 -0.492736,1.09979 -1.10019,1.09969 -0.607253,-1.9e-4 -1.099487,-0.49244 -1.099675,-1.09969 -1.05e-4,-0.60746 0.492215,-1.10003 1.099675,-1.10019 z m -38.099483,0.008 c 0.60746,1.9e-4 1.09978,0.49273 1.099675,1.10019 -1.87e-4,0.60725 -0.492421,1.09948 -1.099675,1.09966 -0.607456,1.4e-4 -1.100003,-0.4922 -1.100191,-1.09966 -1.05e-4,-0.60767 0.492528,-1.10029 1.100191,-1.10019 z m 76.201033,0 c 0.607459,1.9e-4 1.09978,0.49273 1.099674,1.10019 -1.87e-4,0.60725 -0.492421,1.09948 -1.099674,1.09966 -0.607457,1.4e-4 -1.100003,-0.4922 -1.100191,-1.09966 -1.05e-4,-0.60767 0.492528,-1.10029 1.100191,-1.10019 z m -87.7429636,2.13474 h 4.0002726 v 1.49966 h 15.049728 v -1.49966 h 3.999754 v 1.49966 h 15.050246 v -1.49966 h 3.999753 v 1.49966 h 4.999697 v 14.00019 h -4.999697 v 1.49963 h -3.999753 v -1.49963 H 31.20998 v 1.49963 h -3.999754 v -1.49963 H 12.160498 v 1.49963 H 8.1602254 v -1.49963 h -4.999178 v -14.00019 h 4.999178 z m 57.1494816,0 h 3.999756 v 1.49966 h 15.050762 v -1.49966 h 3.999754 v 1.49966 h 15.049731 v -1.49966 h 3.99975 v 1.49966 h 5.00073 v 14.00019 h -5.00073 v 1.49963 h -3.99975 v -1.49963 H 88.359979 v 1.49963 h -3.999754 v -1.49963 H 69.309463 v 1.49963 h -3.999756 v -1.49963 h -4.999178 v -14.00019 h 4.999178 z"
       id="rect1978"
       inkscape:connector-curvature="0" />
    <g
       id="g125"
       transform="translate(48.809996,16.922303)"
       inkscape:export-filename="/Users/pod/temp/plate.png"
       inkscape:export-xdpi="214.35295"
       inkscape:export-ydpi="214.35295">
      <rect
         ry="1.5347117"
         y="222.79265"
         x="-47.624996"
         height="18"
         width="18"
         id="rect113"
         style="opacity:1;fill:#c83737;fill-opacity:1;stroke:none;stroke-width:4;stroke-linecap:square;stroke-linejoin:miter;stroke-miterlimit:4;stroke-dasharray:none" />
      <rect
         style="opacity:0.25;fill:#ffffff;fill-opacity:1;stroke:none;stroke-width:3.99999976;stroke-linecap:square;stroke-linejoin:miter;stroke-miterlimit:4;stroke-dasharray:none"
         id="rect115"
         width="13.761271"
         height="13.761271"
         x="-45.50563"
         y="224.912"
         ry="1.1733103" />
      <text
         id="text119"
         y="233.94202"
         x="-41.383587"
         style="font-style:normal;font-weight:normal;font-size:7.00942516px;line-height:1.25;font-family:sans-serif;letter-spacing:0px;word-spacing:0px;fill:#ffffff;fill-opacity:1;stroke:none;stroke-width:0.26458332"
         xml:space="preserve"><tspan
           style="fill:#ffffff;stroke-width:0.26458332"
           y="233.94202"
           x="-41.383587"
           id="tspan117"
           sodipodi:role="line">Q</tspan></text>
    </g>
  </g>
</svg>
