<?xml version="1.0" encoding="UTF-8" standalone="no"?>
<!-- Created with Inkscape (http://www.inkscape.org/) -->

<svg
   xmlns:dc="http://purl.org/dc/elements/1.1/"
   xmlns:cc="http://creativecommons.org/ns#"
   xmlns:rdf="http://www.w3.org/1999/02/22-rdf-syntax-ns#"
   xmlns:svg="http://www.w3.org/2000/svg"
   xmlns="http://www.w3.org/2000/svg"
   xmlns:sodipodi="http://sodipodi.sourceforge.net/DTD/sodipodi-0.dtd"
   xmlns:inkscape="http://www.inkscape.org/namespaces/inkscape"
   width="210mm"
   height="297mm"
   viewBox="0 0 210 297"
   version="1.1"
   id="svg877"
   inkscape:version="0.92.2 5c3e80d, 2017-08-06"
   sodipodi:docname="top.svg">
  <defs
     id="defs871" />
  <sodipodi:namedview
     id="base"
     pagecolor="#ffffff"
     bordercolor="#666666"
     borderopacity="1.0"
     inkscape:pageopacity="0.0"
     inkscape:pageshadow="2"
     inkscape:zoom="0.92851413"
     inkscape:cx="41.143848"
     inkscape:cy="280.54792"
     inkscape:document-units="mm"
     inkscape:current-layer="layer1"
     showgrid="false"
     showborder="false"
     showguides="true"
     inkscape:guide-bbox="true"
     inkscape:window-width="907"
     inkscape:window-height="861"
     inkscape:window-x="1750"
     inkscape:window-y="95"
     inkscape:window-maximized="0"
     inkscape:snap-bbox="true"
     inkscape:bbox-paths="true"
     inkscape:bbox-nodes="true"
     inkscape:snap-bbox-edge-midpoints="true"
     inkscape:snap-bbox-midpoints="true"
     inkscape:snap-to-guides="true"
     inkscape:snap-grids="true"
     inkscape:snap-nodes="true"
     inkscape:snap-object-midpoints="true"
     inkscape:snap-center="true"
     inkscape:object-paths="true"
     inkscape:snap-intersection-paths="true"
     inkscape:snap-smooth-nodes="true"
     inkscape:snap-midpoints="true"
     inkscape:snap-global="true">
    <sodipodi:guide
       position="0,0"
       orientation="0,1"
       id="guide1422"
       inkscape:locked="false"
       inkscape:label=""
       inkscape:color="rgb(0,0,255)" />
    <sodipodi:guide
       position="0,0"
       orientation="1,0"
       id="guide1424"
       inkscape:locked="false"
       inkscape:label=""
       inkscape:color="rgb(0,0,255)" />
    <sodipodi:guide
       position="115.57,0"
       orientation="1,0"
       id="guide1426"
       inkscape:locked="false"
       inkscape:label=""
       inkscape:color="rgb(0,0,255)" />
    <sodipodi:guide
       position="0,107.95"
       orientation="0,1"
       id="guide1428"
       inkscape:locked="false"
       inkscape:label=""
       inkscape:color="rgb(0,0,255)" />
    <sodipodi:guide
       position="0,0"
       orientation="-0.70710678,0.70710678"
       id="guide1553"
       inkscape:locked="false" />
    <sodipodi:guide
       position="115.57,0"
       orientation="0.70710678,0.70710678"
       id="guide2042"
       inkscape:locked="false" />
    <sodipodi:guide
       position="57.784999,57.785001"
       orientation="1,0"
       id="guide2044"
       inkscape:locked="false" />
    <sodipodi:guide
       position="36.209677,86.360142"
       orientation="0,1"
       id="guide2102"
       inkscape:locked="false" />
    <sodipodi:guide
       position="19.685,90.26866"
       orientation="1,0"
       id="guide106"
       inkscape:locked="false"
       inkscape:label=""
       inkscape:color="rgb(0,0,255)" />
  </sodipodi:namedview>
  <metadata
     id="metadata874">
    <rdf:RDF>
      <cc:Work
         rdf:about="">
        <dc:format>image/svg+xml</dc:format>
        <dc:type
           rdf:resource="http://purl.org/dc/dcmitype/StillImage" />
        <dc:title></dc:title>
      </cc:Work>
    </rdf:RDF>
  </metadata>
  <g
     inkscape:label="Layer 1"
     inkscape:groupmode="layer"
     id="layer1">
    <path
       style="opacity:1;fill:#f2f2f2;fill-opacity:1;stroke:none;stroke-width:9.316535;stroke-linecap:square;stroke-linejoin:miter;stroke-miterlimit:4;stroke-dasharray:none"
       d="M 5.8417969 762.10352 C 5.0341452 762.10352 4.3847656 762.75485 4.3847656 763.5625 L 4.3847656 828.67773 C 4.3847656 829.48539 5.0341452 830.13672 5.8417969 830.13672 L 70.957031 830.13672 C 71.764683 830.13672 72.416016 829.48539 72.416016 828.67773 L 72.416016 763.5625 C 72.416016 762.75485 71.764683 762.10352 70.957031 762.10352 L 5.8417969 762.10352 z M 77.841797 762.10352 C 77.034145 762.10352 76.382813 762.75485 76.382812 763.5625 L 76.382812 828.67773 C 76.382812 829.48539 77.034145 830.13672 77.841797 830.13672 L 142.95703 830.13672 C 143.76468 830.13672 144.41602 829.48539 144.41602 828.67773 L 144.41602 763.5625 C 144.41602 762.75485 143.76468 762.10352 142.95703 762.10352 L 77.841797 762.10352 z M 149.8418 762.10352 C 149.03415 762.10352 148.38477 762.75485 148.38477 763.5625 L 148.38477 828.67773 C 148.38477 829.48542 149.03415 830.13672 149.8418 830.13672 L 214.95703 830.13672 C 215.76468 830.13672 216.41602 829.48542 216.41602 828.67773 L 216.41602 763.5625 C 216.41602 762.75485 215.76468 762.10352 214.95703 762.10352 L 149.8418 762.10352 z M 221.8418 762.10352 C 221.03415 762.10352 220.38281 762.75485 220.38281 763.5625 L 220.38281 828.67773 C 220.38281 829.48542 221.03415 830.13672 221.8418 830.13672 L 286.95703 830.13672 C 287.76468 830.13672 288.41602 829.48542 288.41602 828.67773 L 288.41602 763.5625 C 288.41602 762.75485 287.76468 762.10352 286.95703 762.10352 L 221.8418 762.10352 z M 293.8418 762.10352 C 293.03415 762.10352 292.38477 762.75485 292.38477 763.5625 L 292.38477 828.67773 C 292.38477 829.48542 293.03415 830.13672 293.8418 830.13672 L 358.95703 830.13672 C 359.76468 830.13672 360.41602 829.48542 360.41602 828.67773 L 360.41602 763.5625 C 360.41602 762.75485 359.76468 762.10352 358.95703 762.10352 L 293.8418 762.10352 z M 365.8418 762.10352 C 365.03415 762.10352 364.38281 762.75485 364.38281 763.5625 L 364.38281 828.67773 C 364.38281 829.48542 365.03415 830.13672 365.8418 830.13672 L 430.95703 830.13672 C 431.76468 830.13672 432.41602 829.48542 432.41602 828.67773 L 432.41602 763.5625 C 432.41602 762.75485 431.76468 762.10352 430.95703 762.10352 L 365.8418 762.10352 z M 5.8417969 834.10352 C 5.0341452 834.10352 4.3847656 834.75485 4.3847656 835.5625 L 4.3847656 900.67773 C 4.3847656 901.48539 5.0341452 902.13477 5.8417969 902.13477 L 70.957031 902.13477 C 71.764683 902.13477 72.416016 901.48539 72.416016 900.67773 L 72.416016 835.5625 C 72.416016 834.75485 71.764683 834.10352 70.957031 834.10352 L 5.8417969 834.10352 z M 77.841797 834.10352 C 77.034145 834.10352 76.382813 834.75485 76.382812 835.5625 L 76.382812 900.67773 C 76.382812 901.48539 77.034145 902.13477 77.841797 902.13477 L 142.95703 902.13477 C 143.76468 902.13477 144.41602 901.48539 144.41602 900.67773 L 144.41602 835.5625 C 144.41602 834.75485 143.76468 834.10352 142.95703 834.10352 L 77.841797 834.10352 z M 149.8418 834.10352 C 149.03415 834.10352 148.38477 834.75485 148.38477 835.5625 L 148.38477 900.67773 C 148.38477 901.48542 149.03415 902.13477 149.8418 902.13477 L 214.95703 902.13477 C 215.76468 902.13477 216.41602 901.48542 216.41602 900.67773 L 216.41602 835.5625 C 216.41602 834.75485 215.76468 834.10352 214.95703 834.10352 L 149.8418 834.10352 z M 221.8418 834.10352 C 221.03415 834.10352 220.38281 834.75485 220.38281 835.5625 L 220.38281 900.67773 C 220.38281 901.48542 221.03415 902.13477 221.8418 902.13477 L 286.95703 902.13477 C 287.76468 902.13477 288.41602 901.48542 288.41602 900.67773 L 288.41602 835.5625 C 288.41602 834.75485 287.76468 834.10352 286.95703 834.10352 L 221.8418 834.10352 z M 293.8418 834.10352 C 293.03415 834.10352 292.38477 834.75485 292.38477 835.5625 L 292.38477 900.67773 C 292.38477 901.48542 293.03415 902.13477 293.8418 902.13477 L 358.95703 902.13477 C 359.76468 902.13477 360.41602 901.48542 360.41602 900.67773 L 360.41602 835.5625 C 360.41602 834.75485 359.76468 834.10352 358.95703 834.10352 L 293.8418 834.10352 z M 365.8418 834.10352 C 365.03415 834.10352 364.38281 834.75485 364.38281 835.5625 L 364.38281 900.67773 C 364.38281 901.48542 365.03415 902.13477 365.8418 902.13477 L 430.95703 902.13477 C 431.76468 902.13477 432.41602 901.48542 432.41602 900.67773 L 432.41602 835.5625 C 432.41602 834.75485 431.76468 834.10352 430.95703 834.10352 L 365.8418 834.10352 z M 5.8417969 906.10352 C 5.0341451 906.10352 4.3847656 906.75485 4.3847656 907.5625 L 4.3847656 972.67773 C 4.3847656 973.48542 5.0341451 974.13672 5.8417969 974.13672 L 70.957031 974.13672 C 71.764682 974.13672 72.416016 973.48542 72.416016 972.67773 L 72.416016 907.5625 C 72.416016 906.75485 71.764682 906.10352 70.957031 906.10352 L 5.8417969 906.10352 z M 77.841797 906.10352 C 77.034146 906.10352 76.382812 906.75485 76.382812 907.5625 L 76.382812 972.67773 C 76.382812 973.48542 77.034146 974.13672 77.841797 974.13672 L 142.95703 974.13672 C 143.76468 974.13672 144.41602 973.48542 144.41602 972.67773 L 144.41602 907.5625 C 144.41602 906.75485 143.76468 906.10352 142.95703 906.10352 L 77.841797 906.10352 z M 149.8418 906.10352 C 149.03415 906.10352 148.38477 906.75485 148.38477 907.5625 L 148.38477 972.67773 C 148.38477 973.48542 149.03415 974.13672 149.8418 974.13672 L 214.95703 974.13672 C 215.76468 974.13672 216.41602 973.48542 216.41602 972.67773 L 216.41602 907.5625 C 216.41602 906.75485 215.76468 906.10352 214.95703 906.10352 L 149.8418 906.10352 z M 221.8418 906.10352 C 221.03415 906.10352 220.38281 906.75485 220.38281 907.5625 L 220.38281 972.67773 C 220.38281 973.48542 221.03415 974.13672 221.8418 974.13672 L 286.95703 974.13672 C 287.76468 974.13672 288.41602 973.48542 288.41602 972.67773 L 288.41602 907.5625 C 288.41602 906.75485 287.76468 906.10352 286.95703 906.10352 L 221.8418 906.10352 z M 293.8418 906.10352 C 293.03415 906.10352 292.38477 906.75485 292.38477 907.5625 L 292.38477 972.67773 C 292.38477 973.48542 293.03415 974.13672 293.8418 974.13672 L 358.95703 974.13672 C 359.76468 974.13672 360.41602 973.48542 360.41602 972.67773 L 360.41602 907.5625 C 360.41602 906.75485 359.76468 906.10352 358.95703 906.10352 L 293.8418 906.10352 z M 365.8418 906.10352 C 365.03415 906.10352 364.38281 906.75485 364.38281 907.5625 L 364.38281 972.67773 C 364.38281 973.48542 365.03415 974.13672 365.8418 974.13672 L 430.95703 974.13672 C 431.76468 974.13672 432.41602 973.48542 432.41602 972.67773 L 432.41602 907.5625 C 432.41602 906.75485 431.76468 906.10352 430.95703 906.10352 L 365.8418 906.10352 z M 5.8417969 978.10352 C 5.0341451 978.10352 4.3847656 978.75485 4.3847656 979.5625 L 4.3847656 1044.6777 C 4.3847656 1045.4854 5.0341451 1046.1348 5.8417969 1046.1348 L 70.957031 1046.1348 C 71.764682 1046.1348 72.416016 1045.4854 72.416016 1044.6777 L 72.416016 979.5625 C 72.416016 978.75485 71.764682 978.10352 70.957031 978.10352 L 5.8417969 978.10352 z M 77.841797 978.10352 C 77.034146 978.10352 76.382812 978.75485 76.382812 979.5625 L 76.382812 1044.6777 C 76.382812 1045.4854 77.034146 1046.1348 77.841797 1046.1348 L 142.95703 1046.1348 C 143.76468 1046.1348 144.41602 1045.4854 144.41602 1044.6777 L 144.41602 979.5625 C 144.41602 978.75485 143.76468 978.10352 142.95703 978.10352 L 77.841797 978.10352 z M 149.8418 978.10352 C 149.03415 978.10352 148.38477 978.75485 148.38477 979.5625 L 148.38477 1044.6777 C 148.38477 1045.4854 149.03415 1046.1348 149.8418 1046.1348 L 214.95703 1046.1348 C 215.76468 1046.1348 216.41602 1045.4854 216.41602 1044.6777 L 216.41602 979.5625 C 216.41602 978.75485 215.76468 978.10352 214.95703 978.10352 L 149.8418 978.10352 z M 221.8418 978.10352 C 221.03415 978.10352 220.38281 978.75485 220.38281 979.5625 L 220.38281 1044.6777 C 220.38281 1045.4854 221.03415 1046.1348 221.8418 1046.1348 L 286.95703 1046.1348 C 287.76468 1046.1348 288.41602 1045.4854 288.41602 1044.6777 L 288.41602 979.5625 C 288.41602 978.75485 287.76468 978.10352 286.95703 978.10352 L 221.8418 978.10352 z M 293.8418 978.10352 C 293.03415 978.10352 292.38477 978.75485 292.38477 979.5625 L 292.38477 1044.6777 C 292.38477 1045.4854 293.03415 1046.1348 293.8418 1046.1348 L 358.95703 1046.1348 C 359.76468 1046.1348 360.41602 1045.4854 360.41602 1044.6777 L 360.41602 979.5625 C 360.41602 978.75485 359.76468 978.10352 358.95703 978.10352 L 293.8418 978.10352 z M 365.8418 978.10352 C 365.03415 978.10352 364.38281 978.75485 364.38281 979.5625 L 364.38281 1044.6777 C 364.38281 1045.4854 365.03415 1046.1348 365.8418 1046.1348 L 430.95703 1046.1348 C 431.76468 1046.1348 432.41602 1045.4854 432.41602 1044.6777 L 432.41602 979.5625 C 432.41602 978.75485 431.76468 978.10352 430.95703 978.10352 L 365.8418 978.10352 z M 5.8417969 1050.1035 C 5.0341451 1050.1035 4.3847656 1050.7549 4.3847656 1051.5625 L 4.3847656 1116.6777 C 4.3847656 1117.4854 5.0341451 1118.1367 5.8417969 1118.1367 L 70.957031 1118.1367 C 71.764682 1118.1367 72.416016 1117.4854 72.416016 1116.6777 L 72.416016 1051.5625 C 72.416016 1050.7549 71.764682 1050.1035 70.957031 1050.1035 L 5.8417969 1050.1035 z M 77.841797 1050.1035 C 77.034146 1050.1035 76.382813 1050.7549 76.382812 1051.5625 L 76.382812 1116.6777 C 76.382812 1117.4854 77.034146 1118.1367 77.841797 1118.1367 L 142.95703 1118.1367 C 143.76468 1118.1367 144.41602 1117.4854 144.41602 1116.6777 L 144.41602 1051.5625 C 144.41602 1050.7549 143.76468 1050.1035 142.95703 1050.1035 L 77.841797 1050.1035 z M 149.8418 1050.1035 C 149.03415 1050.1035 148.38477 1050.7549 148.38477 1051.5625 L 148.38477 1116.6777 C 148.38477 1117.4854 149.03415 1118.1367 149.8418 1118.1367 L 214.95703 1118.1367 C 215.76468 1118.1367 216.41602 1117.4854 216.41602 1116.6777 L 216.41602 1051.5625 C 216.41602 1050.7549 215.76468 1050.1035 214.95703 1050.1035 L 149.8418 1050.1035 z M 221.8418 1050.1035 C 221.03415 1050.1035 220.38281 1050.7549 220.38281 1051.5625 L 220.38281 1116.6777 C 220.38281 1117.4854 221.03415 1118.1367 221.8418 1118.1367 L 286.95703 1118.1367 C 287.76468 1118.1367 288.41602 1117.4854 288.41602 1116.6777 L 288.41602 1051.5625 C 288.41602 1050.7549 287.76468 1050.1035 286.95703 1050.1035 L 221.8418 1050.1035 z M 293.8418 1050.1035 C 293.03415 1050.1035 292.38477 1050.7549 292.38477 1051.5625 L 292.38477 1116.6777 C 292.38477 1117.4854 293.03415 1118.1367 293.8418 1118.1367 L 358.95703 1118.1367 C 359.76468 1118.1367 360.41602 1117.4854 360.41602 1116.6777 L 360.41602 1051.5625 C 360.41602 1050.7549 359.76468 1050.1035 358.95703 1050.1035 L 293.8418 1050.1035 z M 365.8418 1050.1035 C 365.03415 1050.1035 364.38281 1050.7549 364.38281 1051.5625 L 364.38281 1116.6777 C 364.38281 1117.4854 365.03415 1118.1367 365.8418 1118.1367 L 430.95703 1118.1367 C 431.76468 1118.1367 432.41602 1117.4854 432.41602 1116.6777 L 432.41602 1051.5625 C 432.41602 1050.7549 431.76468 1050.1035 430.95703 1050.1035 L 365.8418 1050.1035 z "
       transform="scale(0.26458333)"
       id="rect2060" />
    <path
       style="opacity:1;fill:#aa0000;fill-opacity:1;stroke:none;stroke-width:9.31653595;stroke-linecap:square;stroke-linejoin:miter;stroke-miterlimit:4;stroke-dasharray:none"
       d="m 19.201172,714.51911 c -10.4248996,0.009 -18.93764553,8.33567 -19.1777345,18.75781 H 0 v 142.36566 95.35351 132.76561 h 0.0234375 c 0.24009431,10.4221 8.7528387,18.7485 19.1777345,18.7578 H 417.60156 c 10.4249,-0.01 18.93765,-8.3357 19.17774,-18.7578 h 0.0234 v -0.4433 -132.32231 -95.35351 -141.9223 -0.44336 h -0.0234 c -0.24009,-10.42214 -8.75284,-18.74849 -19.17774,-18.75781 z m 19.201172,21.72112 c 4.174393,2.7e-4 7.558344,3.38422 7.558594,7.5586 -2.58e-4,4.17441 -3.384201,7.55833 -7.558594,7.55859 -4.175148,8.3e-4 -7.560287,-3.38342 -7.560547,-7.55859 2.5e-4,-4.17517 3.385389,-7.55943 7.560547,-7.5586 z m 71.998046,0 c 4.17439,2.6e-4 7.55834,3.38421 7.55859,7.5586 -2.6e-4,4.17439 -3.3842,7.55833 -7.55859,7.55859 -4.17515,8.3e-4 -7.56029,-3.38344 -7.56055,-7.55859 2.5e-4,-4.17516 3.38539,-7.55943 7.56055,-7.5586 z m -98.455078,33.42188 h 52.91211 v 52.91406 h -52.91211 z m 71.998047,0 h 52.912111 v 52.91406 H 83.943359 Z m 72.000001,0 h 52.91211 v 52.91406 h -52.91211 z m 71.99805,0 h 52.91406 v 52.91406 h -52.91406 z m 72.00195,0 h 52.91211 v 52.91406 h -52.91211 z m 71.99805,0 h 52.91406 v 52.91406 h -52.91406 z m -359.996098,72 h 52.91211 v 52.91406 h -52.91211 z m 71.998047,0 h 52.912111 v 52.91406 H 83.943359 Z m 72.000001,0 h 52.91211 v 52.91406 h -52.91211 z m 71.99805,0 h 52.91406 v 52.91406 h -52.91406 z m 72.00195,0 h 52.91211 v 52.91406 h -52.91211 z m 71.99805,0 h 52.91406 v 52.91406 h -52.91406 z m -359.996098,72 h 52.91211 v 52.91406 h -52.91211 z m 71.998047,0 h 52.912111 v 52.91406 H 83.943359 Z m 72.000001,0 h 52.91211 v 52.91406 h -52.91211 z m 71.99805,0 h 52.91406 v 52.91406 h -52.91406 z m 72.00195,0 h 52.91211 v 52.91406 h -52.91211 z m 71.99805,0 h 52.91406 v 52.91406 h -52.91406 z m -359.996098,72 h 52.91211 v 52.91409 h -52.91211 z m 71.998047,0 h 52.912111 v 52.91409 H 83.943359 Z m 72.000001,0 h 52.91211 v 52.91409 h -52.91211 z m 71.99805,0 h 52.91406 v 52.91409 h -52.91406 z m 72.00195,0 h 52.91211 v 52.91409 h -52.91211 z m 71.99805,0 h 52.91406 v 52.91409 H 371.94141 Z M 11.945312,1057.6621 h 52.91211 v 52.9141 h -52.91211 z m 71.998047,0 h 52.912111 v 52.9141 H 83.943359 Z m 72.000001,0 h 52.91211 v 52.9141 h -52.91211 z m 71.99805,0 h 52.91406 v 52.9141 h -52.91406 z m 72.00195,0 h 52.91211 v 52.9141 h -52.91211 z m 71.99805,0 h 52.91406 v 52.9141 h -52.91406 z"
       transform="scale(0.26458333)"
       id="path1430"
       inkscape:connector-curvature="0"
       sodipodi:nodetypes="ccccccccccccccccccccccccccccccccccccccccccccccccccccccccccccccccccccccccccccccccccccccccccccccccccccccccccccccccccccccccccccccccccccccccccccccccccccccccccccccccccccccccccccccccccc" />
    <path
       style="opacity:1;fill:#00ff00;fill-opacity:1;stroke:none;stroke-width:9.31653595;stroke-linecap:square;stroke-linejoin:miter;stroke-miterlimit:4;stroke-dasharray:none"
       d="M 19.199219,714.51953 C 8.5624197,714.51953 0,723.08195 0,733.71875 v 369.60155 c 0,10.6368 8.5624197,19.1992 19.199219,19.1992 H 417.59961 c 10.6368,0 19.20117,-8.5624 19.20117,-19.1992 V 733.71875 c 0,-10.6368 -8.56437,-19.19922 -19.20117,-19.19922 H 233.51758 v 7.55859 h 184.08203 c 6.44908,0 11.64062,5.19155 11.64062,11.64063 v 88.85742 h -13.92773 -9.35547 v 5.66797 h -15.11719 v -5.66797 H 345.3125 333.95898 v 5.66797 H 318.8418 v -5.66797 h -16.90039 -39.98438 v 5.66797 h -15.11719 v -5.66797 h -18.89453 v -54.91406 h -19.08984 v 54.91406 h -18.89649 v 5.66797 H 174.8418 v -5.66797 h -56.88282 v 5.66797 H 102.8418 v -5.66797 h -9.355472 -47.52539 v 5.66797 H 30.841797 v -5.66797 H 23.486328 7.5585938 v -88.85742 c 0,-6.44908 5.1915392,-11.64059 11.6406252,-11.64063 H 59.28125 v -7.55859 z m 70.318359,0 v 7.55859 H 203.28125 v -7.55859 z M 30.841797,835.99414 h 15.119141 v 5.66797 h 47.52539 9.355472 v -5.66797 h 15.11718 v 5.66797 h 56.88282 v -5.66797 h 15.11718 v 5.66797 h 18.89649 v 52.91406 h -18.89649 v 5.66992 H 174.8418 v -5.66992 h -56.88282 v 5.66992 H 102.8418 v -5.66992 h -9.355472 -47.52539 v 5.66992 H 30.841797 v -5.66992 H 23.486328 7.5585938 v -52.91406 h 15.9277342 7.355469 z m 215.998043,0 h 15.11719 v 5.66797 h 39.98438 16.90039 v -5.66797 h 15.11718 v 5.66797 h 11.35352 45.52734 v -5.66797 h 15.11719 v 5.66797 h 9.35547 13.92773 v 52.91406 h -13.92773 -9.35547 v 5.66992 h -15.11719 v -5.66992 H 345.3125 333.95898 v 5.66992 H 318.8418 v -5.66992 h -16.90039 -39.98438 v 5.66992 h -15.11719 v -5.66992 h -18.89453 v -52.91406 h 18.89453 z M 30.841797,907.99219 h 15.119141 v 5.66992 h 47.52539 9.355472 v -5.66992 h 15.11718 v 5.66992 h 56.88282 v -5.66992 h 15.11718 v 5.66992 h 18.89649 v 36.37695 16.53711 h -18.89649 v 5.66797 H 174.8418 v -5.66797 h -56.88282 v 5.66797 H 102.8418 v -5.66797 h -9.355472 -47.52539 v 5.66797 H 30.841797 v -5.66797 H 23.486328 7.5585938 v -52.91406 h 15.9277342 7.355469 z m 215.998043,0 h 15.11719 v 5.66992 h 39.98438 16.90039 v -5.66992 h 15.11718 v 5.66992 h 11.35352 45.52734 v -5.66992 h 15.11719 v 5.66992 h 9.35547 13.92773 v 52.91406 h -13.92773 -9.35547 v 5.66797 h -15.11719 v -5.66797 H 345.3125 333.95898 v 5.66797 H 318.8418 v -5.66797 h -16.90039 -39.98438 v 5.66797 h -15.11719 v -5.66797 h -18.89453 v -16.53711 -36.37695 h 18.89453 z M 30.841797,979.99414 h 15.119141 v 5.66797 h 47.52539 9.355472 v -5.66797 h 15.11718 v 5.66797 h 56.88282 v -5.66797 h 15.11718 v 5.66797 h 18.89649 v 52.91409 h -18.89649 v 5.6699 H 174.8418 v -5.6699 h -56.88282 v 5.6699 H 102.8418 v -5.6699 h -9.355472 -47.52539 v 5.6699 H 30.841797 v -5.6699 H 23.486328 7.5585938 v -52.91409 h 15.9277342 7.355469 z m 215.998043,0 h 15.11719 v 5.66797 h 39.98438 16.90039 v -5.66797 h 15.11718 v 5.66797 h 11.35352 45.52734 v -5.66797 h 15.11719 v 5.66797 h 9.35547 13.92773 v 52.91409 h -13.92773 -9.35547 v 5.6699 h -15.11719 v -5.6699 H 345.3125 333.95898 v 5.6699 H 318.8418 v -5.6699 h -16.90039 -39.98438 v 5.6699 h -15.11719 v -5.6699 h -18.89453 v -52.91409 h 18.89453 z M 30.841797,1051.9941 h 15.119141 v 5.668 h 47.52539 9.355472 v -5.668 h 15.11718 v 5.668 h 56.88282 v -5.668 h 15.11718 v 5.668 h 18.89649 v 56.1641 h -18.89649 v 2.4199 H 174.8418 v -2.4199 h -56.88282 v 2.4199 H 102.8418 v -2.4199 H 45.960938 v 2.4199 H 30.841797 v -2.4199 H 19.199219 c -6.449086,0 -11.6406253,-5.1916 -11.6406252,-11.6407 v -44.5234 h 15.9277342 7.355469 z m 215.998043,0 h 15.11719 v 5.668 h 39.98438 16.90039 v -5.668 h 15.11718 v 5.668 h 11.35352 45.52734 v -5.668 h 15.11719 v 5.668 h 9.35547 13.92773 v 44.5234 c 0,6.4491 -5.19154,11.6407 -11.64062,11.6407 h -11.64258 v 2.4199 h -15.11719 v -2.4199 h -56.88086 v 2.4199 H 318.8418 v -2.4199 h -56.88477 v 2.4199 h -15.11719 v -2.4199 h -18.89453 v -56.1641 h 18.89453 z"
       transform="scale(0.26458333)"
       id="rect1978"
       inkscape:connector-curvature="0"
       sodipodi:nodetypes="ssssssssccsscccccccccccccccccccccccccccccccccccscccscccccccccccccccccccccccccccccccccccccccccccccccccccccccccccccccccccccccccccccccccccccccccccccccccccccccccccccccccccccccccccccccccccccccccccccccccccccccccccccccccccccccccccccccccccccccccccccccccccccccccccccccccccccccccccccccccccccccccccccsscccccccccccccccccccsscccccccccccccccc" />
    <path
       id="path1989"
       d="m 79.359483,294.52498 c 0,-1.3988 -1.126149,-2.52491 -2.524999,-2.52491 -1.39885,0 -2.525,1.12611 -2.525,2.52491 L 74.309635,297 h 5.05 z"
       style="opacity:1;fill:#000000;fill-opacity:1;stroke:none;stroke-width:2.46500015;stroke-linecap:square;stroke-linejoin:miter;stroke-miterlimit:4;stroke-dasharray:none"
       inkscape:connector-curvature="0"
       sodipodi:nodetypes="cscccc" />
    <path
       sodipodi:nodetypes="cscccc"
       inkscape:connector-curvature="0"
       style="opacity:1;fill:#000000;fill-opacity:1;stroke:none;stroke-width:2.46500015;stroke-linecap:square;stroke-linejoin:miter;stroke-miterlimit:4;stroke-dasharray:none"
       d="m 98.408999,294.52498 c 0,-1.3988 -1.126149,-2.52491 -2.524999,-2.52491 -1.39885,0 -2.525,1.12611 -2.525,2.52491 L 93.359151,297 h 5.05 z"
       id="path1991" />
    <path
       sodipodi:nodetypes="cscccc"
       inkscape:connector-curvature="0"
       style="opacity:1;fill:#000000;fill-opacity:1;stroke:none;stroke-width:2.46500015;stroke-linecap:square;stroke-linejoin:miter;stroke-miterlimit:4;stroke-dasharray:none"
       d="m 41.258999,294.52498 c 0,-1.3988 -1.126149,-2.52491 -2.524999,-2.52491 -1.39885,0 -2.525,1.12611 -2.525,2.52491 L 36.209151,297 h 5.05 z"
       id="path1993" />
    <path
       id="path1995"
       d="m 60.308515,294.52498 c 0,-1.3988 -1.126149,-2.52491 -2.524999,-2.52491 -1.39885,0 -2.525,1.12611 -2.525,2.52491 L 55.258667,297 h 5.05 z"
       style="opacity:1;fill:#000000;fill-opacity:1;stroke:none;stroke-width:2.46500015;stroke-linecap:square;stroke-linejoin:miter;stroke-miterlimit:4;stroke-dasharray:none"
       inkscape:connector-curvature="0"
       sodipodi:nodetypes="cscccc" />
    <path
       id="path1997"
       d="m 22.208999,294.52498 c 0,-1.3988 -1.126149,-2.52491 -2.524999,-2.52491 -1.39885,0 -2.525,1.12611 -2.525,2.52491 L 17.159151,297 h 5.05 z"
       style="opacity:1;fill:#000000;fill-opacity:1;stroke:none;stroke-width:2.46500015;stroke-linecap:square;stroke-linejoin:miter;stroke-miterlimit:4;stroke-dasharray:none"
       inkscape:connector-curvature="0"
       sodipodi:nodetypes="cscccc" />
    <rect
       y="203.63994"
       x="41.259846"
       height="14"
       width="14"
       id="rect127"
       style="opacity:0.85;fill:#008000;fill-opacity:1;stroke:none;stroke-width:2.46500039;stroke-linecap:square;stroke-linejoin:miter;stroke-miterlimit:4;stroke-dasharray:none" />
    <path
       style="opacity:1;fill:#00ff00;fill-opacity:1;stroke:none;stroke-width:9.31653595;stroke-linecap:square;stroke-linejoin:miter;stroke-miterlimit:4;stroke-dasharray:none"
       d="m 188.00882,718.07812 v 44.0254 1.89062 h 1.95016 v 5.66797 h 3.60743 34.375 v -7.55859 h -32.375 l 0.001,-44.0254 z"
       transform="scale(0.26458333)"
       id="rect125"
       inkscape:connector-curvature="0"
       sodipodi:nodetypes="ccccccccccc" />
  </g>
</svg>
