<?xml version="1.0" encoding="UTF-8" standalone="no"?>
<!-- Created with Inkscape (http://www.inkscape.org/) -->

<svg
   xmlns:dc="http://purl.org/dc/elements/1.1/"
   xmlns:cc="http://creativecommons.org/ns#"
   xmlns:rdf="http://www.w3.org/1999/02/22-rdf-syntax-ns#"
   xmlns:svg="http://www.w3.org/2000/svg"
   xmlns="http://www.w3.org/2000/svg"
   xmlns:sodipodi="http://sodipodi.sourceforge.net/DTD/sodipodi-0.dtd"
   xmlns:inkscape="http://www.inkscape.org/namespaces/inkscape"
   width="210mm"
   height="297mm"
   viewBox="0 0 210 297"
   version="1.1"
   id="svg877"
   inkscape:version="0.92.2 5c3e80d, 2017-08-06"
   sodipodi:docname="top.svg"
   inkscape:export-filename="/Users/pod/temp/plate.png"
   inkscape:export-xdpi="214.35295"
   inkscape:export-ydpi="214.35295">
  <defs
     id="defs871" />
  <sodipodi:namedview
     id="base"
     pagecolor="#ffffff"
     bordercolor="#666666"
     borderopacity="1.0"
     inkscape:pageopacity="1"
     inkscape:pageshadow="2"
     inkscape:zoom="3.6203867"
     inkscape:cx="54.343945"
     inkscape:cy="366.56133"
     inkscape:document-units="mm"
     inkscape:current-layer="layer1"
     showgrid="false"
     showborder="false"
     showguides="true"
     inkscape:guide-bbox="true"
     inkscape:window-width="1179"
     inkscape:window-height="951"
     inkscape:window-x="1756"
     inkscape:window-y="37"
     inkscape:window-maximized="0"
     inkscape:snap-bbox="true"
     inkscape:bbox-paths="true"
     inkscape:bbox-nodes="true"
     inkscape:snap-bbox-edge-midpoints="true"
     inkscape:snap-bbox-midpoints="true"
     inkscape:snap-to-guides="true"
     inkscape:snap-grids="true"
     inkscape:snap-nodes="true"
     inkscape:snap-object-midpoints="true"
     inkscape:snap-center="true"
     inkscape:object-paths="true"
     inkscape:snap-intersection-paths="true"
     inkscape:snap-smooth-nodes="true"
     inkscape:snap-midpoints="true"
     inkscape:snap-global="true"
     inkscape:pagecheckerboard="false">
    <sodipodi:guide
       position="0,0"
       orientation="0,1"
       id="guide1422"
       inkscape:locked="false"
       inkscape:label=""
       inkscape:color="rgb(0,0,255)" />
    <sodipodi:guide
       position="0,0"
       orientation="1,0"
       id="guide1424"
       inkscape:locked="false"
       inkscape:label=""
       inkscape:color="rgb(0,0,255)" />
    <sodipodi:guide
       position="115.57,0"
       orientation="1,0"
       id="guide1426"
       inkscape:locked="false"
       inkscape:label=""
       inkscape:color="rgb(0,0,255)" />
    <sodipodi:guide
       position="0,107.95"
       orientation="0,1"
       id="guide1428"
       inkscape:locked="false"
       inkscape:label=""
       inkscape:color="rgb(0,0,255)" />
    <sodipodi:guide
       position="48.285061,48.285065"
       orientation="-0.70710678,0.70710678"
       id="guide1553"
       inkscape:locked="false" />
    <sodipodi:guide
       position="115.57,0"
       orientation="0.70710678,0.70710678"
       id="guide2042"
       inkscape:locked="false" />
    <sodipodi:guide
       position="57.784999,57.785001"
       orientation="1,0"
       id="guide2044"
       inkscape:locked="false" />
    <sodipodi:guide
       position="36.209677,86.360142"
       orientation="0,1"
       id="guide2102"
       inkscape:locked="false" />
    <sodipodi:guide
       position="19.684999,95.885001"
       orientation="1,0"
       id="guide106"
       inkscape:locked="false"
       inkscape:label=""
       inkscape:color="rgb(0,0,255)" />
    <sodipodi:guide
       position="36.22006,93.370063"
       orientation="-0.70710678,0.70710678"
       id="guide15314"
       inkscape:locked="false" />
    <sodipodi:guide
       position="17.170061,93.370063"
       orientation="-0.70710678,0.70710678"
       id="guide15316"
       inkscape:locked="false" />
    <sodipodi:guide
       position="29.210138,86.360144"
       orientation="1,0"
       id="guide15320"
       inkscape:locked="false" />
    <sodipodi:guide
       position="10.185061,86.385065"
       orientation="1,0"
       id="guide15322"
       inkscape:locked="false" />
    <sodipodi:guide
       position="-3.2238805,101.55224"
       orientation="0,1"
       id="guide15324"
       inkscape:locked="false" />
    <sodipodi:guide
       position="-12.402344,56.223957"
       orientation="1,0"
       id="guide111"
       inkscape:locked="false" />
    <sodipodi:guide
       position="55.259675,93.360003"
       orientation="-0.70710678,0.70710678"
       id="guide11437"
       inkscape:locked="false" />
    <sodipodi:guide
       position="60.309497,93.360243"
       orientation="0.70710678,0.70710678"
       id="guide11439"
       inkscape:locked="false" />
    <sodipodi:guide
       position="41.260013,93.360243"
       orientation="0.70710678,0.70710678"
       id="guide11441"
       inkscape:locked="false" />
    <sodipodi:guide
       position="74.309674,93.360243"
       orientation="-0.70710678,0.70710678"
       id="guide11443"
       inkscape:locked="false" />
    <sodipodi:guide
       position="79.360011,93.360243"
       orientation="0.70710678,0.70710678"
       id="guide11445"
       inkscape:locked="false" />
    <sodipodi:guide
       position="98.409491,93.360003"
       orientation="0.70710678,0.70710678"
       id="guide11447"
       inkscape:locked="false" />
    <sodipodi:guide
       position="112.40968,93.360243"
       orientation="-0.70710678,0.70710678"
       id="guide11449"
       inkscape:locked="false" />
    <sodipodi:guide
       position="67.310124,67.310132"
       orientation="0,1"
       id="guide11451"
       inkscape:locked="false" />
    <sodipodi:guide
       position="67.309717,48.260283"
       orientation="0,1"
       id="guide11453"
       inkscape:locked="false" />
    <sodipodi:guide
       position="48.259867,67.310134"
       orientation="1,0"
       id="guide11455"
       inkscape:locked="false" />
    <sodipodi:guide
       position="86.359586,67.310153"
       orientation="1,0"
       id="guide11457"
       inkscape:locked="false" />
    <sodipodi:guide
       position="105.40935,86.360144"
       orientation="1,0"
       id="guide11459"
       inkscape:locked="false" />
    <sodipodi:guide
       position="3.1610473,93.360239"
       orientation="0.70710678,0.70710678"
       id="guide11461"
       inkscape:locked="false" />
  </sodipodi:namedview>
  <metadata
     id="metadata874">
    <rdf:RDF>
      <cc:Work
         rdf:about="">
        <dc:format>image/svg+xml</dc:format>
        <dc:type
           rdf:resource="http://purl.org/dc/dcmitype/StillImage" />
        <dc:title />
      </cc:Work>
    </rdf:RDF>
  </metadata>
  <g
     inkscape:label="Layer 1"
     inkscape:groupmode="layer"
     id="layer1">
    <path
       style="opacity:1;fill:#f2f2f2;fill-opacity:1;stroke:none;stroke-width:2.46499991;stroke-linecap:square;stroke-linejoin:miter;stroke-miterlimit:4;stroke-dasharray:none"
       d="m 1.5459354,201.66935 c -0.2136911,0 -0.3855061,0.17233 -0.3855061,0.38602 v 17.2284 c 0,0.2137 0.171815,0.38603 0.3855061,0.38603 H 18.77434 c 0.213691,0 0.386023,-0.17233 0.386023,-0.38603 v -17.2284 c 0,-0.21369 -0.172332,-0.38602 -0.386023,-0.38602 z m 19.0499996,0 c -0.213692,0 -0.386023,0.17233 -0.386024,0.38602 v 17.2284 c 0,0.2137 0.172332,0.38603 0.386024,0.38603 H 37.82434 c 0.21369,0 0.386024,-0.17233 0.386024,-0.38603 v -17.2284 c 0,-0.21369 -0.172334,-0.38602 -0.386024,-0.38602 z m 19.05,0 c -0.213691,0 -0.385506,0.17233 -0.385506,0.38602 v 17.2284 c 0,0.2137 0.171815,0.38603 0.385506,0.38603 h 17.228404 c 0.213691,0 0.386025,-0.17233 0.386025,-0.38603 v -17.2284 c 0,-0.21369 -0.172334,-0.38602 -0.386025,-0.38602 z m 19.05,0 c -0.213691,0 -0.386025,0.17233 -0.386025,0.38602 v 17.2284 c 0,0.2137 0.172334,0.38603 0.386025,0.38603 h 17.228404 c 0.213691,0 0.386025,-0.17233 0.386025,-0.38603 v -17.2284 c 0,-0.21369 -0.172334,-0.38602 -0.386025,-0.38602 z m 19.05,0 c -0.213691,0 -0.385506,0.17233 -0.385506,0.38602 v 17.2284 c 0,0.2137 0.171815,0.38603 0.385506,0.38603 h 17.228401 c 0.21369,0 0.38603,-0.17233 0.38603,-0.38603 v -17.2284 c 0,-0.21369 -0.17234,-0.38602 -0.38603,-0.38602 z m 19.050001,0 c -0.21369,0 -0.38603,0.17233 -0.38603,0.38602 v 17.2284 c 0,0.2137 0.17234,0.38603 0.38603,0.38603 h 17.228394 c 0.21369,0 0.38603,-0.17233 0.38603,-0.38603 v -17.2284 c 0,-0.21369 -0.17234,-0.38602 -0.38603,-0.38602 z m -95.2500006,19.05 c -0.2136911,0 -0.3855061,0.17233 -0.3855061,0.38602 v 17.2284 c 0,0.2137 0.171815,0.38551 0.3855061,0.38551 H 18.77434 c 0.213691,0 0.386023,-0.17181 0.386023,-0.38551 v -17.2284 c 0,-0.21369 -0.172332,-0.38602 -0.386023,-0.38602 z m 19.0499996,0 c -0.213692,0 -0.386023,0.17233 -0.386024,0.38602 v 17.2284 c 0,0.2137 0.172332,0.38551 0.386024,0.38551 H 37.82434 c 0.21369,0 0.386024,-0.17181 0.386024,-0.38551 v -17.2284 c 0,-0.21369 -0.172334,-0.38602 -0.386024,-0.38602 z m 19.05,0 c -0.213691,0 -0.385506,0.17233 -0.385506,0.38602 v 17.2284 c 0,0.2137 0.171815,0.38551 0.385506,0.38551 h 17.228404 c 0.213691,0 0.386025,-0.17181 0.386025,-0.38551 v -17.2284 c 0,-0.21369 -0.172334,-0.38602 -0.386025,-0.38602 z m 19.05,0 c -0.213691,0 -0.386025,0.17233 -0.386025,0.38602 v 17.2284 c 0,0.2137 0.172334,0.38551 0.386025,0.38551 h 17.228404 c 0.213691,0 0.386025,-0.17181 0.386025,-0.38551 v -17.2284 c 0,-0.21369 -0.172334,-0.38602 -0.386025,-0.38602 z m 19.05,0 c -0.213691,0 -0.385506,0.17233 -0.385506,0.38602 v 17.2284 c 0,0.2137 0.171815,0.38551 0.385506,0.38551 h 17.228401 c 0.21369,0 0.38603,-0.17181 0.38603,-0.38551 v -17.2284 c 0,-0.21369 -0.17234,-0.38602 -0.38603,-0.38602 z m 19.050001,0 c -0.21369,0 -0.38603,0.17233 -0.38603,0.38602 v 17.2284 c 0,0.2137 0.17234,0.38551 0.38603,0.38551 h 17.228394 c 0.21369,0 0.38603,-0.17181 0.38603,-0.38551 v -17.2284 c 0,-0.21369 -0.17234,-0.38602 -0.38603,-0.38602 z m -95.2500006,19.05 c -0.2136912,0 -0.3855061,0.17233 -0.3855061,0.38602 v 17.2284 c 0,0.2137 0.1718149,0.38603 0.3855061,0.38603 H 18.77434 c 0.213691,0 0.386023,-0.17233 0.386023,-0.38603 v -17.2284 c 0,-0.21369 -0.172332,-0.38602 -0.386023,-0.38602 z m 19.0499996,0 c -0.213691,0 -0.386024,0.17233 -0.386024,0.38602 v 17.2284 c 0,0.2137 0.172333,0.38603 0.386024,0.38603 H 37.82434 c 0.21369,0 0.386024,-0.17233 0.386024,-0.38603 v -17.2284 c 0,-0.21369 -0.172334,-0.38602 -0.386024,-0.38602 z m 19.05,0 c -0.213691,0 -0.385506,0.17233 -0.385506,0.38602 v 17.2284 c 0,0.2137 0.171815,0.38603 0.385506,0.38603 h 17.228404 c 0.213691,0 0.386025,-0.17233 0.386025,-0.38603 v -17.2284 c 0,-0.21369 -0.172334,-0.38602 -0.386025,-0.38602 z m 19.05,0 c -0.213691,0 -0.386025,0.17233 -0.386025,0.38602 v 17.2284 c 0,0.2137 0.172334,0.38603 0.386025,0.38603 h 17.228404 c 0.213691,0 0.386025,-0.17233 0.386025,-0.38603 v -17.2284 c 0,-0.21369 -0.172334,-0.38602 -0.386025,-0.38602 z m 19.05,0 c -0.213691,0 -0.385506,0.17233 -0.385506,0.38602 v 17.2284 c 0,0.2137 0.171815,0.38603 0.385506,0.38603 h 17.228401 c 0.21369,0 0.38603,-0.17233 0.38603,-0.38603 v -17.2284 c 0,-0.21369 -0.17234,-0.38602 -0.38603,-0.38602 z m 19.050001,0 c -0.21369,0 -0.38603,0.17233 -0.38603,0.38602 v 17.2284 c 0,0.2137 0.17234,0.38603 0.38603,0.38603 h 17.228394 c 0.21369,0 0.38603,-0.17233 0.38603,-0.38603 v -17.2284 c 0,-0.21369 -0.17234,-0.38602 -0.38603,-0.38602 z m -95.2500006,19.05 c -0.2136912,0 -0.3855061,0.17233 -0.3855061,0.38602 v 17.22839 c 0,0.21371 0.1718149,0.38553 0.3855061,0.38553 H 18.77434 c 0.213691,0 0.386023,-0.17182 0.386023,-0.38553 v -17.22839 c 0,-0.21369 -0.172332,-0.38602 -0.386023,-0.38602 z m 19.0499996,0 c -0.213691,0 -0.386024,0.17233 -0.386024,0.38602 v 17.22839 c 0,0.21371 0.172333,0.38553 0.386024,0.38553 H 37.82434 c 0.21369,0 0.386024,-0.17182 0.386024,-0.38553 v -17.22839 c 0,-0.21369 -0.172334,-0.38602 -0.386024,-0.38602 z m 19.05,0 c -0.213691,0 -0.385506,0.17233 -0.385506,0.38602 v 17.22839 c 0,0.21371 0.171815,0.38553 0.385506,0.38553 h 17.228404 c 0.213691,0 0.386025,-0.17182 0.386025,-0.38553 v -17.22839 c 0,-0.21369 -0.172334,-0.38602 -0.386025,-0.38602 z m 19.05,0 c -0.213691,0 -0.386025,0.17233 -0.386025,0.38602 v 17.22839 c 0,0.21371 0.172334,0.38553 0.386025,0.38553 h 17.228404 c 0.213691,0 0.386025,-0.17182 0.386025,-0.38553 v -17.22839 c 0,-0.21369 -0.172334,-0.38602 -0.386025,-0.38602 z m 19.05,0 c -0.213691,0 -0.385506,0.17233 -0.385506,0.38602 v 17.22839 c 0,0.21371 0.171815,0.38553 0.385506,0.38553 h 17.228401 c 0.21369,0 0.38603,-0.17182 0.38603,-0.38553 v -17.22839 c 0,-0.21369 -0.17234,-0.38602 -0.38603,-0.38602 z m 19.050001,0 c -0.21369,0 -0.38603,0.17233 -0.38603,0.38602 v 17.22839 c 0,0.21371 0.17234,0.38553 0.38603,0.38553 h 17.228394 c 0.21369,0 0.38603,-0.17182 0.38603,-0.38553 v -17.22839 c 0,-0.21369 -0.17234,-0.38602 -0.38603,-0.38602 z M 1.5459354,277.86934 c -0.2136912,0 -0.3855061,0.17235 -0.3855061,0.38603 v 17.22839 c 0,0.21371 0.1718149,0.38603 0.3855061,0.38603 H 18.77434 c 0.213691,0 0.386023,-0.17232 0.386023,-0.38603 v -17.22839 c 0,-0.21368 -0.172332,-0.38603 -0.386023,-0.38603 z m 19.0499996,0 c -0.213691,0 -0.386023,0.17235 -0.386024,0.38603 v 17.22839 c 0,0.21371 0.172333,0.38603 0.386024,0.38603 H 37.82434 c 0.21369,0 0.386024,-0.17232 0.386024,-0.38603 v -17.22839 c 0,-0.21368 -0.172334,-0.38603 -0.386024,-0.38603 z m 19.05,0 c -0.213691,0 -0.385506,0.17235 -0.385506,0.38603 v 17.22839 c 0,0.21371 0.171815,0.38603 0.385506,0.38603 h 17.228404 c 0.213691,0 0.386025,-0.17232 0.386025,-0.38603 v -17.22839 c 0,-0.21368 -0.172334,-0.38603 -0.386025,-0.38603 z m 19.05,0 c -0.213691,0 -0.386025,0.17235 -0.386025,0.38603 v 17.22839 c 0,0.21371 0.172334,0.38603 0.386025,0.38603 h 17.228404 c 0.213691,0 0.386025,-0.17232 0.386025,-0.38603 v -17.22839 c 0,-0.21368 -0.172334,-0.38603 -0.386025,-0.38603 z m 19.05,0 c -0.213691,0 -0.385506,0.17235 -0.385506,0.38603 v 17.22839 c 0,0.21371 0.171815,0.38603 0.385506,0.38603 h 17.228401 c 0.21369,0 0.38603,-0.17232 0.38603,-0.38603 v -17.22839 c 0,-0.21368 -0.17234,-0.38603 -0.38603,-0.38603 z m 19.050001,0 c -0.21369,0 -0.38603,0.17235 -0.38603,0.38603 v 17.22839 c 0,0.21371 0.17234,0.38603 0.38603,0.38603 h 17.228394 c 0.21369,0 0.38603,-0.17232 0.38603,-0.38603 v -17.22839 c 0,-0.21368 -0.17234,-0.38603 -0.38603,-0.38603 z"
       id="rect2060"
       inkscape:connector-curvature="0"
       inkscape:export-filename="/Users/pod/temp/plate.png"
       inkscape:export-xdpi="214.35295"
       inkscape:export-ydpi="214.35295" />
    <rect
       y="216.61034"
       x="-329.3053"
       height="5"
       width="57.295906"
       id="rect41"
       style="opacity:1;fill:#ffff00;fill-opacity:1;stroke:none;stroke-width:4;stroke-linecap:square;stroke-linejoin:miter;stroke-miterlimit:4;stroke-dasharray:none" />
    <rect
       style="opacity:1;fill:#000000;fill-opacity:1;stroke:none;stroke-width:4;stroke-linecap:square;stroke-linejoin:miter;stroke-miterlimit:4;stroke-dasharray:none"
       id="rect39"
       width="57.295906"
       height="1.6"
       x="-329.3053"
       y="216.61034" />
    <rect
       y="221.61034"
       x="-329.3053"
       height="1.6"
       width="57.295906"
       id="rect43"
       style="opacity:1;fill:#000000;fill-opacity:1;stroke:none;stroke-width:4;stroke-linecap:square;stroke-linejoin:miter;stroke-miterlimit:4;stroke-dasharray:none" />
    <path
       style="opacity:1;fill:#999999;fill-opacity:1;stroke:none;stroke-width:4;stroke-linecap:square;stroke-linejoin:miter;stroke-miterlimit:4;stroke-dasharray:none"
       d="m -316.16779,218.51037 c -0.13597,0 -0.24545,0.10948 -0.24545,0.24546 v 4.45451 h -0.14986 v 0.54984 h 0.39531 1.55909 0.39531 v -0.54984 h -0.14986 v -4.45451 c 0,-0.13598 -0.10946,-0.24546 -0.24545,-0.24546 z"
       id="rect45"
       inkscape:connector-curvature="0" />
    <path
       style="opacity:1;fill:#333333;fill-opacity:1;stroke:none;stroke-width:2.46500015;stroke-linecap:square;stroke-linejoin:miter;stroke-miterlimit:4;stroke-dasharray:none"
       d="M 5.0797933,189.04995 C 2.2654735,189.04995 0,191.31543 0,194.12975 v 97.79041 c 0,2.81432 2.2654735,5.07978 5.0797933,5.07978 h 12.0793657 5.049821 14.00018 5.049819 13.999662 5.049822 14.001213 5.049821 13.999662 5.049819 12.080922 c 2.81432,0 5.0803,-2.26546 5.0803,-5.07978 v -97.79041 c 0,-2.81432 -2.26598,-5.0798 -5.0803,-5.0798 H 63.159967 v 11.58999 H 52.459847 V 189.04995 H 25.059969 v 11.58999 H 14.359847 v -11.58999 z m 0,1.99988 h 7.0801877 v 12.58993 h 15.050245 v -12.58993 h 23.049753 v 12.58993 h 4.999697 v 14.00018 h -4.999697 v 1.49965 h -3.999753 v -1.49965 H 31.20998 v 1.49965 h -3.999754 v -1.49965 H 12.159981 l 5.17e-4,1.49965 H 8.1602254 v -1.49965 h -4.999178 v -14.00018 l -1.1611695,-1.16065 v -8.34936 c 0,-1.70632 1.3735947,-3.07991 3.0799154,-3.07992 z m 60.0800537,0 H 110.4899 c 1.70631,0 3.07991,1.3736 3.07991,3.07992 v 8.34936 l -1.15962,1.16065 v 14.00018 h -5.00073 v 1.49965 h -3.99975 v -1.49965 H 88.359979 v 1.49965 h -3.999754 v -1.49965 H 69.309463 v 1.49965 h -3.999756 v -1.49965 h -4.999178 v -14.00018 h 4.849318 z m -45.457691,27.99002 c 0.607259,1.8e-4 1.099495,0.49242 1.099675,1.09968 1.05e-4,0.60746 -0.492215,1.10001 -1.099675,1.10019 -0.607663,1e-4 -1.100296,-0.49253 -1.100191,-1.10019 1.8e-4,-0.60746 0.49273,-1.09978 1.100191,-1.09968 z m 76.201033,0 c 0.607258,1.8e-4 1.099494,0.49242 1.099674,1.09968 1.06e-4,0.60746 -0.492215,1.10001 -1.099674,1.10019 -0.607663,1e-4 -1.100296,-0.49253 -1.100191,-1.10019 1.8e-4,-0.60747 0.492729,-1.09978 1.100191,-1.09968 z m -38.10155,0.008 c 0.607459,-1.1e-4 1.10001,0.49222 1.10019,1.09968 1.06e-4,0.60766 -0.492527,1.1003 -1.10019,1.10019 -0.607462,-1.8e-4 -1.09978,-0.49273 -1.099675,-1.10019 1.8e-4,-0.60726 0.492416,-1.0995 1.099675,-1.09968 z m -49.6414136,2.14199 h 4.0002726 v 1.49965 h 15.049728 v -1.49965 h 3.999754 v 1.49965 h 15.050246 v -1.49965 h 3.999753 v 1.49965 h 4.999697 v 14.00018 h -4.999697 v 1.50016 h -3.999753 v -1.50016 H 31.20998 v 1.50016 h -3.999754 v -1.50016 H 12.160498 v 1.50016 H 8.1602254 v -1.50016 h -4.999178 v -14.00018 h 4.999178 z m 57.1494816,0 h 3.999756 v 1.49965 h 15.050762 v -1.49965 h 3.999754 v 1.49965 h 15.049731 v -1.49965 h 3.99975 v 1.49965 h 5.00073 v 14.00018 h -5.00073 v 1.50016 h -3.99975 v -1.50016 H 88.359979 v 1.50016 h -3.999754 v -1.50016 H 69.309463 v 1.50016 h -3.999756 v -1.50016 h -4.999178 v -14.00018 h 4.999178 z M 8.1602254,240.23959 h 4.0002726 v 1.50017 h 15.049728 v -1.50017 h 3.999754 v 1.50017 h 15.050246 v -1.50017 h 3.999753 v 1.50017 h 4.999697 v 14.00018 h -4.999697 v 1.49965 h -3.999753 v -1.49965 H 31.20998 v 1.49965 h -3.999754 v -1.49965 H 12.160498 v 1.49965 H 8.1602254 v -1.49965 h -4.999178 v -14.00018 h 4.999178 z m 57.1494816,0 h 3.999756 v 1.50017 h 15.050762 v -1.50017 h 3.999754 v 1.50017 h 15.049731 v -1.50017 h 3.99975 v 1.50017 h 5.00073 v 14.00018 h -5.00073 v 1.49965 h -3.99975 v -1.49965 H 88.359979 v 1.49965 h -3.999754 v -1.49965 H 69.309463 v 1.49965 h -3.999756 v -1.49965 h -4.999178 v -14.00018 h 4.999178 z m -7.524605,7.40058 a 1.1,1.1 0 0 1 1.099675,1.09968 1.1,1.1 0 0 1 -1.099675,1.10019 1.1,1.1 0 0 1 -1.10019,-1.10019 1.1,1.1 0 0 1 1.10019,-1.09968 z M 8.1602254,259.29011 h 4.0002726 v 1.49965 h 15.049728 v -1.49965 h 3.999754 v 1.49965 h 15.050246 v -1.49965 h 3.999753 v 1.49965 h 4.999697 v 14.00019 h -4.999697 v 1.50016 h -3.999753 v -1.50016 H 31.20998 v 1.50016 h -3.999754 v -1.50016 H 12.160498 v 1.50016 H 8.1602254 v -1.50016 h -4.999178 v -14.00019 h 4.999178 z m 57.1494816,0 h 3.999756 v 1.49965 h 15.050762 v -1.49965 h 3.999754 v 1.49965 h 15.049731 v -1.49965 h 3.99975 v 1.49965 h 5.00073 v 14.00019 h -5.00073 v 1.50016 h -3.99975 v -1.50016 H 88.359979 v 1.50016 h -3.999754 v -1.50016 H 69.309463 v 1.50016 h -3.999756 v -1.50016 h -4.999178 v -14.00019 h 4.999178 z m -7.508068,16.90697 c 0.607663,-1.1e-4 1.100296,0.49252 1.10019,1.10019 -1.88e-4,0.60746 -0.492736,1.09979 -1.10019,1.09969 -0.607253,-1.9e-4 -1.099487,-0.49244 -1.099675,-1.09969 -1.05e-4,-0.60746 0.492215,-1.10003 1.099675,-1.10019 z m -38.099483,0.008 c 0.60746,1.9e-4 1.09978,0.49273 1.099675,1.10019 -1.87e-4,0.60725 -0.492421,1.09948 -1.099675,1.09966 -0.607456,1.4e-4 -1.100003,-0.4922 -1.100191,-1.09966 -1.05e-4,-0.60767 0.492528,-1.10029 1.100191,-1.10019 z m 76.201033,0 c 0.607459,1.9e-4 1.09978,0.49273 1.099674,1.10019 -1.87e-4,0.60725 -0.492421,1.09948 -1.099674,1.09966 -0.607457,1.4e-4 -1.100003,-0.4922 -1.100191,-1.09966 -1.05e-4,-0.60767 0.492528,-1.10029 1.100191,-1.10019 z m -87.7429636,2.13474 h 4.0002726 v 1.49966 h 15.049728 v -1.49966 h 3.999754 v 1.49966 h 15.050246 v -1.49966 h 3.999753 v 1.49966 h 4.999697 v 14.00019 h -4.999697 v 1.49963 h -3.999753 v -1.49963 H 31.20998 v 1.49963 h -3.999754 v -1.49963 H 12.160498 v 1.49963 H 8.1602254 v -1.49963 h -4.999178 v -14.00019 h 4.999178 z m 57.1494816,0 h 3.999756 v 1.49966 h 15.050762 v -1.49966 h 3.999754 v 1.49966 h 15.049731 v -1.49966 h 3.99975 v 1.49966 h 5.00073 v 14.00019 h -5.00073 v 1.49963 h -3.99975 v -1.49963 H 88.359979 v 1.49963 h -3.999754 v -1.49963 H 69.309463 v 1.49963 h -3.999756 v -1.49963 h -4.999178 v -14.00019 h 4.999178 z"
       id="rect1978"
       inkscape:connector-curvature="0" />
    <path
       style="opacity:1;fill:#cccccc;fill-opacity:1;stroke:none;stroke-width:9.31653595;stroke-linecap:square;stroke-linejoin:miter;stroke-miterlimit:4;stroke-dasharray:none"
       d="M 19.201172 714.51953 C 8.7762722 714.52753 0.26352443 722.85522 0.0234375 733.27734 L 0 733.27734 L 0 875.64258 L 0 970.99609 L 0 1103.7617 L 0.0234375 1103.7617 C 0.26355089 1114.1838 8.776276 1122.5102 19.201172 1122.5195 L 417.60156 1122.5195 C 428.02648 1122.5085 436.53918 1114.1838 436.7793 1103.7617 L 436.80273 1103.7617 L 436.80273 1103.3184 L 436.80273 970.99609 L 436.80273 875.64258 L 436.80273 733.7207 L 436.80273 733.27734 L 436.7793 733.27734 C 436.5393 722.85522 428.02648 714.52883 417.60156 714.51953 L 19.201172 714.51953 z M 19.294922 729.84375 C 21.389136 729.84386 23.087767 731.53779 23.087891 733.625 C 23.088846 735.71296 21.3899 737.4061 19.294922 737.40625 C 17.199948 737.4061 15.500997 735.71296 15.501953 733.625 C 15.502078 731.53779 17.200711 729.84386 19.294922 729.84375 z M 38.414062 729.90234 C 40.508276 729.90246 42.206907 731.59443 42.207031 733.68164 C 42.207987 735.7696 40.50904 737.46274 38.414062 737.46289 C 36.319089 737.46274 34.620138 735.7696 34.621094 733.68164 C 34.621219 731.59443 36.319852 729.90246 38.414062 729.90234 z M 11.945312 769.66211 L 64.857422 769.66211 L 64.857422 822.57617 L 11.945312 822.57617 L 11.945312 769.66211 z M 83.943359 769.66211 L 136.85547 769.66211 L 136.85547 822.57617 L 83.943359 822.57617 L 83.943359 769.66211 z M 155.94336 769.66211 L 208.85547 769.66211 L 208.85547 822.57617 L 155.94336 822.57617 L 155.94336 769.66211 z M 227.94141 769.66211 L 280.85547 769.66211 L 280.85547 822.57617 L 227.94141 822.57617 L 227.94141 769.66211 z M 299.94336 769.66211 L 352.85547 769.66211 L 352.85547 822.57617 L 299.94336 822.57617 L 299.94336 769.66211 z M 371.94141 769.66211 L 424.85547 769.66211 L 424.85547 822.57617 L 371.94141 822.57617 L 371.94141 769.66211 z M 11.945312 841.66211 L 64.857422 841.66211 L 64.857422 894.57617 L 11.945312 894.57617 L 11.945312 841.66211 z M 83.943359 841.66211 L 136.85547 841.66211 L 136.85547 894.57617 L 83.943359 894.57617 L 83.943359 841.66211 z M 155.94336 841.66211 L 208.85547 841.66211 L 208.85547 894.57617 L 155.94336 894.57617 L 155.94336 841.66211 z M 227.94141 841.66211 L 280.85547 841.66211 L 280.85547 894.57617 L 227.94141 894.57617 L 227.94141 841.66211 z M 299.94336 841.66211 L 352.85547 841.66211 L 352.85547 894.57617 L 299.94336 894.57617 L 299.94336 841.66211 z M 371.94141 841.66211 L 424.85547 841.66211 L 424.85547 894.57617 L 371.94141 894.57617 L 371.94141 841.66211 z M 11.945312 913.66211 L 64.857422 913.66211 L 64.857422 966.57617 L 11.945312 966.57617 L 11.945312 913.66211 z M 83.943359 913.66211 L 136.85547 913.66211 L 136.85547 966.57617 L 83.943359 966.57617 L 83.943359 913.66211 z M 155.94336 913.66211 L 208.85547 913.66211 L 208.85547 966.57617 L 155.94336 966.57617 L 155.94336 913.66211 z M 227.94141 913.66211 L 280.85547 913.66211 L 280.85547 966.57617 L 227.94141 966.57617 L 227.94141 913.66211 z M 299.94336 913.66211 L 352.85547 913.66211 L 352.85547 966.57617 L 299.94336 966.57617 L 299.94336 913.66211 z M 371.94141 913.66211 L 424.85547 913.66211 L 424.85547 966.57617 L 371.94141 966.57617 L 371.94141 913.66211 z M 11.945312 985.66211 L 64.857422 985.66211 L 64.857422 1038.5762 L 11.945312 1038.5762 L 11.945312 985.66211 z M 83.943359 985.66211 L 136.85547 985.66211 L 136.85547 1038.5762 L 83.943359 1038.5762 L 83.943359 985.66211 z M 155.94336 985.66211 L 208.85547 985.66211 L 208.85547 1038.5762 L 155.94336 1038.5762 L 155.94336 985.66211 z M 227.94141 985.66211 L 280.85547 985.66211 L 280.85547 1038.5762 L 227.94141 1038.5762 L 227.94141 985.66211 z M 299.94336 985.66211 L 352.85547 985.66211 L 352.85547 1038.5762 L 299.94336 1038.5762 L 299.94336 985.66211 z M 371.94141 985.66211 L 424.85547 985.66211 L 424.85547 1038.5762 L 371.94141 1038.5762 L 371.94141 985.66211 z M 11.947266 1057.6621 L 64.857422 1057.6621 L 64.857422 1110.5762 L 11.945312 1110.5762 L 11.947266 1057.6621 z M 83.943359 1057.6621 L 136.85547 1057.6621 L 136.85547 1110.5762 L 83.943359 1110.5762 L 83.943359 1057.6621 z M 155.94336 1057.6621 L 208.85547 1057.6621 L 208.85547 1110.5762 L 155.94336 1110.5762 L 155.94336 1057.6621 z M 227.94141 1057.6621 L 280.85547 1057.6621 L 280.85547 1110.5762 L 227.94141 1110.5762 L 227.94141 1057.6621 z M 299.94336 1057.6621 L 352.85547 1057.6621 L 352.85547 1110.5762 L 299.94336 1110.5762 L 299.94336 1057.6621 z M 371.94141 1057.6621 L 424.85547 1057.6621 L 424.85742 1110.5762 L 371.94141 1110.5762 L 371.94141 1057.6621 z "
       transform="scale(0.26458333)"
       id="path59" />
    <g
       id="g125"
       transform="translate(48.809996,16.922303)"
       inkscape:export-filename="/Users/pod/temp/plate.png"
       inkscape:export-xdpi="214.35295"
       inkscape:export-ydpi="214.35295">
      <rect
         ry="1.5347117"
         y="222.79265"
         x="-47.624996"
         height="18"
         width="18"
         id="rect113"
         style="opacity:1;fill:#c83737;fill-opacity:1;stroke:none;stroke-width:4;stroke-linecap:square;stroke-linejoin:miter;stroke-miterlimit:4;stroke-dasharray:none" />
      <rect
         style="opacity:0.25;fill:#ffffff;fill-opacity:1;stroke:none;stroke-width:3.99999976;stroke-linecap:square;stroke-linejoin:miter;stroke-miterlimit:4;stroke-dasharray:none"
         id="rect115"
         width="13.761271"
         height="13.761271"
         x="-45.50563"
         y="224.912"
         ry="1.1733103" />
      <text
         id="text119"
         y="233.94202"
         x="-41.383587"
         style="font-style:normal;font-weight:normal;font-size:7.00942516px;line-height:1.25;font-family:sans-serif;letter-spacing:0px;word-spacing:0px;fill:#ffffff;fill-opacity:1;stroke:none;stroke-width:0.26458332"
         xml:space="preserve"><tspan
           style="fill:#ffffff;stroke-width:0.26458332"
           y="233.94202"
           x="-41.383587"
           id="tspan117"
           sodipodi:role="line">Q</tspan></text>
    </g>
    <g
       inkscape:export-ydpi="214.35295"
       inkscape:export-xdpi="214.35295"
       inkscape:export-filename="/Users/pod/temp/plate.png"
       transform="translate(48.809996,-2.1276483)"
       id="g63">
      <rect
         style="opacity:1;fill:#c83737;fill-opacity:1;stroke:none;stroke-width:4;stroke-linecap:square;stroke-linejoin:miter;stroke-miterlimit:4;stroke-dasharray:none"
         id="rect55"
         width="18"
         height="18"
         x="-47.624996"
         y="222.79265"
         ry="1.5347117" />
    </g>
    <g
       id="g67"
       transform="translate(48.809996,-21.177648)"
       inkscape:export-filename="/Users/pod/temp/plate.png"
       inkscape:export-xdpi="214.35295"
       inkscape:export-ydpi="214.35295">
      <rect
         ry="1.5347117"
         y="222.79265"
         x="-47.624996"
         height="18"
         width="18"
         id="rect65"
         style="opacity:1;fill:#c83737;fill-opacity:1;stroke:none;stroke-width:4;stroke-linecap:square;stroke-linejoin:miter;stroke-miterlimit:4;stroke-dasharray:none" />
    </g>
    <g
       id="g71"
       transform="translate(67.859996,-2.1276483)"
       inkscape:export-filename="/Users/pod/temp/plate.png"
       inkscape:export-xdpi="214.35295"
       inkscape:export-ydpi="214.35295">
      <rect
         ry="1.5347117"
         y="222.79265"
         x="-47.624996"
         height="18"
         width="18"
         id="rect69"
         style="opacity:1;fill:#c83737;fill-opacity:1;stroke:none;stroke-width:4;stroke-linecap:square;stroke-linejoin:miter;stroke-miterlimit:4;stroke-dasharray:none" />
    </g>
    <g
       inkscape:export-ydpi="214.35295"
       inkscape:export-xdpi="214.35295"
       inkscape:export-filename="/Users/pod/temp/plate.png"
       transform="translate(67.859996,-21.177648)"
       id="g75">
      <rect
         style="opacity:1;fill:#c83737;fill-opacity:1;stroke:none;stroke-width:4;stroke-linecap:square;stroke-linejoin:miter;stroke-miterlimit:4;stroke-dasharray:none"
         id="rect73"
         width="18"
         height="18"
         x="-47.624996"
         y="222.79265"
         ry="1.5347117" />
    </g>
    <g
       id="g79"
       transform="translate(86.909996,-2.1276483)"
       inkscape:export-filename="/Users/pod/temp/plate.png"
       inkscape:export-xdpi="214.35295"
       inkscape:export-ydpi="214.35295">
      <rect
         ry="1.5347117"
         y="222.79265"
         x="-47.624996"
         height="18"
         width="18"
         id="rect77"
         style="opacity:1;fill:#c83737;fill-opacity:1;stroke:none;stroke-width:4;stroke-linecap:square;stroke-linejoin:miter;stroke-miterlimit:4;stroke-dasharray:none" />
    </g>
    <g
       inkscape:export-ydpi="214.35295"
       inkscape:export-xdpi="214.35295"
       inkscape:export-filename="/Users/pod/temp/plate.png"
       transform="translate(86.909996,-21.177648)"
       id="g83">
      <rect
         style="opacity:1;fill:#c83737;fill-opacity:1;stroke:none;stroke-width:4;stroke-linecap:square;stroke-linejoin:miter;stroke-miterlimit:4;stroke-dasharray:none"
         id="rect81"
         width="18"
         height="18"
         x="-47.624996"
         y="222.79265"
         ry="1.5347117" />
    </g>
    <g
       inkscape:export-ydpi="214.35295"
       inkscape:export-xdpi="214.35295"
       inkscape:export-filename="/Users/pod/temp/plate.png"
       transform="translate(105.96,-2.1276483)"
       id="g87">
      <rect
         style="opacity:1;fill:#c83737;fill-opacity:1;stroke:none;stroke-width:4;stroke-linecap:square;stroke-linejoin:miter;stroke-miterlimit:4;stroke-dasharray:none"
         id="rect85"
         width="18"
         height="18"
         x="-47.624996"
         y="222.79265"
         ry="1.5347117" />
    </g>
    <g
       id="g91"
       transform="translate(105.96,-21.177648)"
       inkscape:export-filename="/Users/pod/temp/plate.png"
       inkscape:export-xdpi="214.35295"
       inkscape:export-ydpi="214.35295">
      <rect
         ry="1.5347117"
         y="222.79265"
         x="-47.624996"
         height="18"
         width="18"
         id="rect89"
         style="opacity:1;fill:#c83737;fill-opacity:1;stroke:none;stroke-width:4;stroke-linecap:square;stroke-linejoin:miter;stroke-miterlimit:4;stroke-dasharray:none" />
    </g>
    <g
       inkscape:export-ydpi="214.35295"
       inkscape:export-xdpi="214.35295"
       inkscape:export-filename="/Users/pod/temp/plate.png"
       transform="translate(125.01,-2.1276483)"
       id="g95">
      <rect
         style="opacity:1;fill:#c83737;fill-opacity:1;stroke:none;stroke-width:4;stroke-linecap:square;stroke-linejoin:miter;stroke-miterlimit:4;stroke-dasharray:none"
         id="rect93"
         width="18"
         height="18"
         x="-47.624996"
         y="222.79265"
         ry="1.5347117" />
    </g>
    <g
       id="g99"
       transform="translate(125.01,-21.177648)"
       inkscape:export-filename="/Users/pod/temp/plate.png"
       inkscape:export-xdpi="214.35295"
       inkscape:export-ydpi="214.35295">
      <rect
         ry="1.5347117"
         y="222.79265"
         x="-47.624996"
         height="18"
         width="18"
         id="rect97"
         style="opacity:1;fill:#c83737;fill-opacity:1;stroke:none;stroke-width:4;stroke-linecap:square;stroke-linejoin:miter;stroke-miterlimit:4;stroke-dasharray:none" />
    </g>
    <g
       id="g103"
       transform="translate(144.06,-2.1276483)"
       inkscape:export-filename="/Users/pod/temp/plate.png"
       inkscape:export-xdpi="214.35295"
       inkscape:export-ydpi="214.35295">
      <rect
         ry="1.5347117"
         y="222.79265"
         x="-47.624996"
         height="18"
         width="18"
         id="rect101"
         style="opacity:1;fill:#c83737;fill-opacity:1;stroke:none;stroke-width:4;stroke-linecap:square;stroke-linejoin:miter;stroke-miterlimit:4;stroke-dasharray:none" />
    </g>
    <g
       inkscape:export-ydpi="214.35295"
       inkscape:export-xdpi="214.35295"
       inkscape:export-filename="/Users/pod/temp/plate.png"
       transform="translate(144.06,-21.177648)"
       id="g107">
      <rect
         style="opacity:1;fill:#c83737;fill-opacity:1;stroke:none;stroke-width:4;stroke-linecap:square;stroke-linejoin:miter;stroke-miterlimit:4;stroke-dasharray:none"
         id="rect105"
         width="18"
         height="18"
         x="-47.624996"
         y="222.79265"
         ry="1.5347117" />
    </g>
    <g
       id="g111"
       transform="translate(48.809996,35.972352)"
       inkscape:export-filename="/Users/pod/temp/plate.png"
       inkscape:export-xdpi="214.35295"
       inkscape:export-ydpi="214.35295">
      <rect
         ry="1.5347117"
         y="222.79265"
         x="-47.624996"
         height="18"
         width="18"
         id="rect109"
         style="opacity:1;fill:#c83737;fill-opacity:1;stroke:none;stroke-width:4;stroke-linecap:square;stroke-linejoin:miter;stroke-miterlimit:4;stroke-dasharray:none" />
    </g>
    <g
       inkscape:export-ydpi="214.35295"
       inkscape:export-xdpi="214.35295"
       inkscape:export-filename="/Users/pod/temp/plate.png"
       transform="translate(67.859996,35.972352)"
       id="g120">
      <rect
         style="opacity:1;fill:#c83737;fill-opacity:1;stroke:none;stroke-width:4;stroke-linecap:square;stroke-linejoin:miter;stroke-miterlimit:4;stroke-dasharray:none"
         id="rect118"
         width="18"
         height="18"
         x="-47.624996"
         y="222.79265"
         ry="1.5347117" />
    </g>
    <g
       id="g124"
       transform="translate(67.859996,16.922352)"
       inkscape:export-filename="/Users/pod/temp/plate.png"
       inkscape:export-xdpi="214.35295"
       inkscape:export-ydpi="214.35295">
      <rect
         ry="1.5347117"
         y="222.79265"
         x="-47.624996"
         height="18"
         width="18"
         id="rect122"
         style="opacity:1;fill:#c83737;fill-opacity:1;stroke:none;stroke-width:4;stroke-linecap:square;stroke-linejoin:miter;stroke-miterlimit:4;stroke-dasharray:none" />
    </g>
    <g
       inkscape:export-ydpi="214.35295"
       inkscape:export-xdpi="214.35295"
       inkscape:export-filename="/Users/pod/temp/plate.png"
       transform="translate(86.909996,35.972352)"
       id="g128">
      <rect
         style="opacity:1;fill:#c83737;fill-opacity:1;stroke:none;stroke-width:4;stroke-linecap:square;stroke-linejoin:miter;stroke-miterlimit:4;stroke-dasharray:none"
         id="rect126"
         width="18"
         height="18"
         x="-47.624996"
         y="222.79265"
         ry="1.5347117" />
    </g>
    <g
       id="g132"
       transform="translate(86.909996,16.922352)"
       inkscape:export-filename="/Users/pod/temp/plate.png"
       inkscape:export-xdpi="214.35295"
       inkscape:export-ydpi="214.35295">
      <rect
         ry="1.5347117"
         y="222.79265"
         x="-47.624996"
         height="18"
         width="18"
         id="rect130"
         style="opacity:1;fill:#c83737;fill-opacity:1;stroke:none;stroke-width:4;stroke-linecap:square;stroke-linejoin:miter;stroke-miterlimit:4;stroke-dasharray:none" />
    </g>
    <g
       id="g136"
       transform="translate(105.96,35.972352)"
       inkscape:export-filename="/Users/pod/temp/plate.png"
       inkscape:export-xdpi="214.35295"
       inkscape:export-ydpi="214.35295">
      <rect
         ry="1.5347117"
         y="222.79265"
         x="-47.624996"
         height="18"
         width="18"
         id="rect134"
         style="opacity:1;fill:#c83737;fill-opacity:1;stroke:none;stroke-width:4;stroke-linecap:square;stroke-linejoin:miter;stroke-miterlimit:4;stroke-dasharray:none" />
    </g>
    <g
       inkscape:export-ydpi="214.35295"
       inkscape:export-xdpi="214.35295"
       inkscape:export-filename="/Users/pod/temp/plate.png"
       transform="translate(105.96,16.922352)"
       id="g140">
      <rect
         style="opacity:1;fill:#c83737;fill-opacity:1;stroke:none;stroke-width:4;stroke-linecap:square;stroke-linejoin:miter;stroke-miterlimit:4;stroke-dasharray:none"
         id="rect138"
         width="18"
         height="18"
         x="-47.624996"
         y="222.79265"
         ry="1.5347117" />
    </g>
    <g
       id="g144"
       transform="translate(125.01,35.972352)"
       inkscape:export-filename="/Users/pod/temp/plate.png"
       inkscape:export-xdpi="214.35295"
       inkscape:export-ydpi="214.35295">
      <rect
         ry="1.5347117"
         y="222.79265"
         x="-47.624996"
         height="18"
         width="18"
         id="rect142"
         style="opacity:1;fill:#c83737;fill-opacity:1;stroke:none;stroke-width:4;stroke-linecap:square;stroke-linejoin:miter;stroke-miterlimit:4;stroke-dasharray:none" />
    </g>
    <g
       inkscape:export-ydpi="214.35295"
       inkscape:export-xdpi="214.35295"
       inkscape:export-filename="/Users/pod/temp/plate.png"
       transform="translate(125.01,16.922352)"
       id="g148">
      <rect
         style="opacity:1;fill:#c83737;fill-opacity:1;stroke:none;stroke-width:4;stroke-linecap:square;stroke-linejoin:miter;stroke-miterlimit:4;stroke-dasharray:none"
         id="rect146"
         width="18"
         height="18"
         x="-47.624996"
         y="222.79265"
         ry="1.5347117" />
    </g>
    <g
       inkscape:export-ydpi="214.35295"
       inkscape:export-xdpi="214.35295"
       inkscape:export-filename="/Users/pod/temp/plate.png"
       transform="translate(144.06,35.972352)"
       id="g152">
      <rect
         style="opacity:1;fill:#c83737;fill-opacity:1;stroke:none;stroke-width:4;stroke-linecap:square;stroke-linejoin:miter;stroke-miterlimit:4;stroke-dasharray:none"
         id="rect150"
         width="18"
         height="18"
         x="-47.624996"
         y="222.79265"
         ry="1.5347117" />
    </g>
    <g
       id="g156"
       transform="translate(144.06,16.922352)"
       inkscape:export-filename="/Users/pod/temp/plate.png"
       inkscape:export-xdpi="214.35295"
       inkscape:export-ydpi="214.35295">
      <rect
         ry="1.5347117"
         y="222.79265"
         x="-47.624996"
         height="18"
         width="18"
         id="rect154"
         style="opacity:1;fill:#c83737;fill-opacity:1;stroke:none;stroke-width:4;stroke-linecap:square;stroke-linejoin:miter;stroke-miterlimit:4;stroke-dasharray:none" />
    </g>
    <g
       inkscape:export-ydpi="214.35295"
       inkscape:export-xdpi="214.35295"
       inkscape:export-filename="/Users/pod/temp/plate.png"
       transform="translate(48.809996,55.022352)"
       id="g160">
      <rect
         style="opacity:1;fill:#c83737;fill-opacity:1;stroke:none;stroke-width:4;stroke-linecap:square;stroke-linejoin:miter;stroke-miterlimit:4;stroke-dasharray:none"
         id="rect158"
         width="18"
         height="18"
         x="-47.624996"
         y="222.79265"
         ry="1.5347117" />
    </g>
    <g
       id="g164"
       transform="translate(67.859996,55.022352)"
       inkscape:export-filename="/Users/pod/temp/plate.png"
       inkscape:export-xdpi="214.35295"
       inkscape:export-ydpi="214.35295">
      <rect
         ry="1.5347117"
         y="222.79265"
         x="-47.624996"
         height="18"
         width="18"
         id="rect162"
         style="opacity:1;fill:#c83737;fill-opacity:1;stroke:none;stroke-width:4;stroke-linecap:square;stroke-linejoin:miter;stroke-miterlimit:4;stroke-dasharray:none" />
    </g>
    <g
       id="g168"
       transform="translate(86.909996,55.022352)"
       inkscape:export-filename="/Users/pod/temp/plate.png"
       inkscape:export-xdpi="214.35295"
       inkscape:export-ydpi="214.35295">
      <rect
         ry="1.5347117"
         y="222.79265"
         x="-47.624996"
         height="18"
         width="18"
         id="rect166"
         style="opacity:1;fill:#c83737;fill-opacity:1;stroke:none;stroke-width:4;stroke-linecap:square;stroke-linejoin:miter;stroke-miterlimit:4;stroke-dasharray:none" />
    </g>
    <g
       inkscape:export-ydpi="214.35295"
       inkscape:export-xdpi="214.35295"
       inkscape:export-filename="/Users/pod/temp/plate.png"
       transform="translate(105.96,55.022352)"
       id="g172">
      <rect
         style="opacity:1;fill:#c83737;fill-opacity:1;stroke:none;stroke-width:4;stroke-linecap:square;stroke-linejoin:miter;stroke-miterlimit:4;stroke-dasharray:none"
         id="rect170"
         width="18"
         height="18"
         x="-47.624996"
         y="222.79265"
         ry="1.5347117" />
    </g>
    <g
       inkscape:export-ydpi="214.35295"
       inkscape:export-xdpi="214.35295"
       inkscape:export-filename="/Users/pod/temp/plate.png"
       transform="translate(125.01,55.022352)"
       id="g176">
      <rect
         style="opacity:1;fill:#c83737;fill-opacity:1;stroke:none;stroke-width:4;stroke-linecap:square;stroke-linejoin:miter;stroke-miterlimit:4;stroke-dasharray:none"
         id="rect174"
         width="18"
         height="18"
         x="-47.624996"
         y="222.79265"
         ry="1.5347117" />
    </g>
    <g
       id="g180"
       transform="translate(144.06,55.022352)"
       inkscape:export-filename="/Users/pod/temp/plate.png"
       inkscape:export-xdpi="214.35295"
       inkscape:export-ydpi="214.35295">
      <rect
         ry="1.5347117"
         y="222.79265"
         x="-47.624996"
         height="18"
         width="18"
         id="rect178"
         style="opacity:1;fill:#c83737;fill-opacity:1;stroke:none;stroke-width:4;stroke-linecap:square;stroke-linejoin:miter;stroke-miterlimit:4;stroke-dasharray:none" />
    </g>
  </g>
</svg>
