<?xml version="1.0" encoding="UTF-8" standalone="no"?>
<!-- Created with Inkscape (http://www.inkscape.org/) -->

<svg
   xmlns:dc="http://purl.org/dc/elements/1.1/"
   xmlns:cc="http://creativecommons.org/ns#"
   xmlns:rdf="http://www.w3.org/1999/02/22-rdf-syntax-ns#"
   xmlns:svg="http://www.w3.org/2000/svg"
   xmlns="http://www.w3.org/2000/svg"
   xmlns:sodipodi="http://sodipodi.sourceforge.net/DTD/sodipodi-0.dtd"
   xmlns:inkscape="http://www.inkscape.org/namespaces/inkscape"
   width="210mm"
   height="297mm"
   viewBox="0 0 210 297"
   version="1.1"
   id="svg877"
   inkscape:version="0.92.2 5c3e80d, 2017-08-06"
   sodipodi:docname="top.svg">
  <defs
     id="defs871" />
  <sodipodi:namedview
     id="base"
     pagecolor="#ffffff"
     bordercolor="#666666"
     borderopacity="1.0"
     inkscape:pageopacity="0.0"
     inkscape:pageshadow="2"
     inkscape:zoom="1.3131173"
     inkscape:cx="92.297432"
     inkscape:cy="497.69072"
     inkscape:document-units="mm"
     inkscape:current-layer="layer1"
     showgrid="false"
     showborder="false"
     showguides="true"
     inkscape:guide-bbox="true"
     inkscape:window-width="1015"
     inkscape:window-height="959"
     inkscape:window-x="1727"
     inkscape:window-y="17"
     inkscape:window-maximized="0"
     inkscape:snap-bbox="true"
     inkscape:bbox-paths="true"
     inkscape:bbox-nodes="true"
     inkscape:snap-bbox-edge-midpoints="true"
     inkscape:snap-bbox-midpoints="true"
     inkscape:snap-to-guides="true"
     inkscape:snap-grids="true">
    <sodipodi:guide
       position="0,0"
       orientation="0,1"
       id="guide1422"
       inkscape:locked="false"
       inkscape:label=""
       inkscape:color="rgb(0,0,255)" />
    <sodipodi:guide
       position="0,0"
       orientation="1,0"
       id="guide1424"
       inkscape:locked="false"
       inkscape:label=""
       inkscape:color="rgb(0,0,255)" />
    <sodipodi:guide
       position="115.57,0"
       orientation="1,0"
       id="guide1426"
       inkscape:locked="false"
       inkscape:label=""
       inkscape:color="rgb(0,0,255)" />
    <sodipodi:guide
       position="20.5486,105.41"
       orientation="0,1"
       id="guide1428"
       inkscape:locked="false"
       inkscape:label=""
       inkscape:color="rgb(0,0,255)" />
    <sodipodi:guide
       position="0,0"
       orientation="-0.70710678,0.70710678"
       id="guide1553"
       inkscape:locked="false" />
    <sodipodi:guide
       position="115.57,0"
       orientation="0.70710678,0.70710678"
       id="guide2042"
       inkscape:locked="false" />
    <sodipodi:guide
       position="57.784999,57.785001"
       orientation="1,0"
       id="guide2044"
       inkscape:locked="false" />
    <sodipodi:guide
       position="19.685102,86.360142"
       orientation="1,0"
       id="guide2049"
       inkscape:locked="false" />
    <sodipodi:guide
       position="36.209677,86.360142"
       orientation="0,1"
       id="guide2102"
       inkscape:locked="false" />
  </sodipodi:namedview>
  <metadata
     id="metadata874">
    <rdf:RDF>
      <cc:Work
         rdf:about="">
        <dc:format>image/svg+xml</dc:format>
        <dc:type
           rdf:resource="http://purl.org/dc/dcmitype/StillImage" />
        <dc:title></dc:title>
      </cc:Work>
    </rdf:RDF>
  </metadata>
  <g
     inkscape:label="Layer 1"
     inkscape:groupmode="layer"
     id="layer1">
    <path
       style="opacity:0.5;fill:#aa0000;fill-opacity:1;stroke:none;stroke-width:9.31653595;stroke-linecap:square;stroke-linejoin:miter;stroke-miterlimit:4;stroke-dasharray:none"
       d="M 19.201172 724.11914 A 19.2 19.2 0 0 0 0.0234375 742.87695 L 0 742.87695 L 0 875.64258 L 0 970.99609 L 0 1103.7617 L 0.0234375 1103.7617 A 19.2 19.2 0 0 0 19.201172 1122.5195 L 417.60156 1122.5195 A 19.2 19.2 0 0 0 436.7793 1103.7617 L 436.80273 1103.7617 L 436.80273 1103.3184 L 436.80273 970.99609 L 436.80273 875.64258 L 436.80273 743.32031 L 436.80273 742.87695 L 436.7793 742.87695 A 19.2 19.2 0 0 0 417.60156 724.11914 L 19.201172 724.11914 z M 110.40039 736.24023 A 7.5590551 7.5590551 0 0 1 117.95898 743.79883 A 7.5590551 7.5590551 0 0 1 110.40039 751.35742 A 7.5590551 7.5590551 0 0 1 102.83984 743.79883 A 7.5590551 7.5590551 0 0 1 110.40039 736.24023 z M 11.945312 769.66211 L 64.857422 769.66211 L 64.857422 822.57617 L 11.945312 822.57617 L 11.945312 769.66211 z M 83.943359 769.66211 L 136.85547 769.66211 L 136.85547 822.57617 L 83.943359 822.57617 L 83.943359 769.66211 z M 155.94336 769.66211 L 208.85547 769.66211 L 208.85547 822.57617 L 155.94336 822.57617 L 155.94336 769.66211 z M 227.94141 769.66211 L 280.85547 769.66211 L 280.85547 822.57617 L 227.94141 822.57617 L 227.94141 769.66211 z M 299.94336 769.66211 L 352.85547 769.66211 L 352.85547 822.57617 L 299.94336 822.57617 L 299.94336 769.66211 z M 371.94141 769.66211 L 424.85547 769.66211 L 424.85547 822.57617 L 371.94141 822.57617 L 371.94141 769.66211 z M 11.945312 841.66211 L 64.857422 841.66211 L 64.857422 894.57617 L 11.945312 894.57617 L 11.945312 841.66211 z M 83.943359 841.66211 L 136.85547 841.66211 L 136.85547 894.57617 L 83.943359 894.57617 L 83.943359 841.66211 z M 155.94336 841.66211 L 208.85547 841.66211 L 208.85547 894.57617 L 155.94336 894.57617 L 155.94336 841.66211 z M 227.94141 841.66211 L 280.85547 841.66211 L 280.85547 894.57617 L 227.94141 894.57617 L 227.94141 841.66211 z M 299.94336 841.66211 L 352.85547 841.66211 L 352.85547 894.57617 L 299.94336 894.57617 L 299.94336 841.66211 z M 371.94141 841.66211 L 424.85547 841.66211 L 424.85547 894.57617 L 371.94141 894.57617 L 371.94141 841.66211 z M 11.945312 913.66211 L 64.857422 913.66211 L 64.857422 966.57617 L 11.945312 966.57617 L 11.945312 913.66211 z M 83.943359 913.66211 L 136.85547 913.66211 L 136.85547 966.57617 L 83.943359 966.57617 L 83.943359 913.66211 z M 155.94336 913.66211 L 208.85547 913.66211 L 208.85547 966.57617 L 155.94336 966.57617 L 155.94336 913.66211 z M 227.94141 913.66211 L 280.85547 913.66211 L 280.85547 966.57617 L 227.94141 966.57617 L 227.94141 913.66211 z M 299.94336 913.66211 L 352.85547 913.66211 L 352.85547 966.57617 L 299.94336 966.57617 L 299.94336 913.66211 z M 371.94141 913.66211 L 424.85547 913.66211 L 424.85547 966.57617 L 371.94141 966.57617 L 371.94141 913.66211 z M 11.945312 985.66211 L 64.857422 985.66211 L 64.857422 1038.5762 L 11.945312 1038.5762 L 11.945312 985.66211 z M 83.943359 985.66211 L 136.85547 985.66211 L 136.85547 1038.5762 L 83.943359 1038.5762 L 83.943359 985.66211 z M 155.94336 985.66211 L 208.85547 985.66211 L 208.85547 1038.5762 L 155.94336 1038.5762 L 155.94336 985.66211 z M 227.94141 985.66211 L 280.85547 985.66211 L 280.85547 1038.5762 L 227.94141 1038.5762 L 227.94141 985.66211 z M 299.94336 985.66211 L 352.85547 985.66211 L 352.85547 1038.5762 L 299.94336 1038.5762 L 299.94336 985.66211 z M 371.94141 985.66211 L 424.85547 985.66211 L 424.85547 1038.5762 L 371.94141 1038.5762 L 371.94141 985.66211 z M 11.945312 1057.6621 L 64.857422 1057.6621 L 64.857422 1110.5762 L 11.945312 1110.5762 L 11.945312 1057.6621 z M 83.943359 1057.6621 L 136.85547 1057.6621 L 136.85547 1110.5762 L 83.943359 1110.5762 L 83.943359 1057.6621 z M 155.94336 1057.6621 L 208.85547 1057.6621 L 208.85547 1110.5762 L 155.94336 1110.5762 L 155.94336 1057.6621 z M 227.94141 1057.6621 L 280.85547 1057.6621 L 280.85547 1110.5762 L 227.94141 1110.5762 L 227.94141 1057.6621 z M 299.94336 1057.6621 L 352.85547 1057.6621 L 352.85547 1110.5762 L 299.94336 1110.5762 L 299.94336 1057.6621 z M 371.94141 1057.6621 L 424.85547 1057.6621 L 424.85547 1110.5762 L 371.94141 1110.5762 L 371.94141 1057.6621 z "
       transform="scale(0.26458333)"
       id="path1430" />
    <path
       style="opacity:1;fill:#000000;fill-opacity:1;stroke:none;stroke-width:9.31653595;stroke-linecap:square;stroke-linejoin:miter;stroke-miterlimit:4;stroke-dasharray:none"
       d="M 0 767.63867 L 0 1103.3203 C 0 1113.9571 8.5624186 1122.5195 19.199219 1122.5195 L 417.59961 1122.5195 C 428.23641 1122.5195 436.80078 1113.9571 436.80078 1103.3203 L 436.80078 767.63867 L 429.24023 767.63867 L 429.24023 1099.541 C 429.24023 1108.084 422.36325 1114.9609 413.82031 1114.9609 L 22.980469 1114.9609 C 14.437527 1114.9609 7.5585936 1108.084 7.5585938 1099.541 L 7.5585938 767.63867 L 0 767.63867 z "
       transform="scale(0.26458333)"
       id="path2036" />
    <path
       style="opacity:1;fill:#000000;fill-opacity:1;stroke:none;stroke-width:9.31653595;stroke-linecap:square;stroke-linejoin:miter;stroke-miterlimit:4;stroke-dasharray:none"
       d="M 19.199219 724.11914 C 8.5624186 724.11914 -2.3684758e-15 732.68351 0 743.32031 L 0 1103.3203 C 0 1113.9571 8.5624186 1122.5195 19.199219 1122.5195 L 417.59961 1122.5195 C 428.23641 1122.5195 436.80078 1113.9571 436.80078 1103.3203 L 436.80078 743.32031 C 436.80078 732.68351 428.23641 724.11914 417.59961 724.11914 L 233.51758 724.11914 L 233.51758 727.89844 L 417.59961 727.89844 C 426.14251 727.89844 433.01953 734.77737 433.01953 743.32031 L 433.01953 1103.3203 C 433.01953 1111.8633 426.14251 1118.7402 417.59961 1118.7402 L 19.199219 1118.7402 C 10.656277 1118.7402 3.7792969 1111.8633 3.7792969 1103.3203 L 3.7792969 743.32031 C 3.7792969 734.77737 10.656277 727.89844 19.199219 727.89844 L 59.283203 727.89844 L 59.283203 724.11914 L 19.199219 724.11914 z M 89.517578 724.11914 L 89.517578 727.89844 L 203.28125 727.89844 L 203.28125 724.11914 L 89.517578 724.11914 z "
       transform="scale(0.26458333)"
       id="rect1971" />
    <path
       style="opacity:1;fill:#000000;fill-opacity:1;stroke:none;stroke-width:9.31653595;stroke-linecap:square;stroke-linejoin:miter;stroke-miterlimit:4;stroke-dasharray:none"
       d="M 169.17188 727.89844 L 169.17188 745.30664 L 169.17188 747.83984 L 169.17188 754.39453 C 169.17188 759.71293 173.45308 763.99414 178.77148 763.99414 L 186.0293 763.99414 C 191.3477 763.99414 195.62891 759.71293 195.62891 754.39453 L 195.62891 747.83984 L 195.62891 745.30664 L 195.62891 727.89844 L 169.17188 727.89844 z "
       transform="scale(0.26458333)"
       id="rect1976" />
    <path
       style="opacity:1;fill:#000000;fill-opacity:1;stroke:none;stroke-width:9.31653595;stroke-linecap:square;stroke-linejoin:miter;stroke-miterlimit:4;stroke-dasharray:none"
       d="M 93.486328 822.57617 C 88.199514 822.57617 83.943359 826.83233 83.943359 832.11914 C 83.943359 837.40595 88.199514 841.66211 93.486328 841.66211 L 136.85742 841.66211 L 415.3125 841.66211 L 434.85547 841.66211 L 434.85547 822.57617 L 415.3125 822.57617 L 136.85742 822.57617 L 93.486328 822.57617 z "
       transform="scale(0.26458333)"
       id="rect1978" />
    <path
       id="path1983"
       d="m 24.734924,236.69018 c -1.398803,0 -2.524911,1.12611 -2.524911,2.52491 0,1.3988 1.126108,2.52491 2.524911,2.52491 h 11.475268 73.674568 5.17075 v -5.04982 h -5.17075 -73.674568 z"
       style="opacity:1;fill:#000000;fill-opacity:1;stroke:none;stroke-width:2.46500015;stroke-linecap:square;stroke-linejoin:miter;stroke-miterlimit:4;stroke-dasharray:none"
       inkscape:connector-curvature="0" />
    <path
       id="path1985"
       d="m 24.734924,255.73994 c -1.398803,0 -2.524911,1.12611 -2.524911,2.52491 0,1.3988 1.126108,2.52491 2.524911,2.52491 h 11.475268 73.674568 5.17075 v -5.04982 h -5.17075 -73.674568 z"
       style="opacity:1;fill:#000000;fill-opacity:1;stroke:none;stroke-width:2.46500015;stroke-linecap:square;stroke-linejoin:miter;stroke-miterlimit:4;stroke-dasharray:none"
       inkscape:connector-curvature="0" />
    <path
       inkscape:connector-curvature="0"
       style="opacity:1;fill:#000000;fill-opacity:1;stroke:none;stroke-width:2.46500015;stroke-linecap:square;stroke-linejoin:miter;stroke-miterlimit:4;stroke-dasharray:none"
       d="m 24.734924,274.79018 c -1.398803,0 -2.524911,1.12611 -2.524911,2.52491 0,1.3988 1.126108,2.52491 2.524911,2.52491 h 11.475268 73.674568 5.17075 v -5.04982 h -5.17075 -73.674568 z"
       id="path1987" />
    <path
       id="path1989"
       d="m 79.359483,294.52498 c 0,-1.3988 -1.126149,-2.52491 -2.524999,-2.52491 -1.39885,0 -2.525,1.12611 -2.525,2.52491 L 74.309635,297 h 5.05 z"
       style="opacity:1;fill:#000000;fill-opacity:1;stroke:none;stroke-width:2.46500015;stroke-linecap:square;stroke-linejoin:miter;stroke-miterlimit:4;stroke-dasharray:none"
       inkscape:connector-curvature="0"
       sodipodi:nodetypes="cscccc" />
    <path
       sodipodi:nodetypes="cscccc"
       inkscape:connector-curvature="0"
       style="opacity:1;fill:#000000;fill-opacity:1;stroke:none;stroke-width:2.46500015;stroke-linecap:square;stroke-linejoin:miter;stroke-miterlimit:4;stroke-dasharray:none"
       d="m 98.408999,294.52498 c 0,-1.3988 -1.126149,-2.52491 -2.524999,-2.52491 -1.39885,0 -2.525,1.12611 -2.525,2.52491 L 93.359151,297 h 5.05 z"
       id="path1991" />
    <path
       sodipodi:nodetypes="cscccc"
       inkscape:connector-curvature="0"
       style="opacity:1;fill:#000000;fill-opacity:1;stroke:none;stroke-width:2.46500015;stroke-linecap:square;stroke-linejoin:miter;stroke-miterlimit:4;stroke-dasharray:none"
       d="m 41.258999,294.52498 c 0,-1.3988 -1.126149,-2.52491 -2.524999,-2.52491 -1.39885,0 -2.525,1.12611 -2.525,2.52491 L 36.209151,297 h 5.05 z"
       id="path1993" />
    <path
       id="path1995"
       d="m 60.308515,294.52498 c 0,-1.3988 -1.126149,-2.52491 -2.524999,-2.52491 -1.39885,0 -2.525,1.12611 -2.525,2.52491 L 55.258667,297 h 5.05 z"
       style="opacity:1;fill:#000000;fill-opacity:1;stroke:none;stroke-width:2.46500015;stroke-linecap:square;stroke-linejoin:miter;stroke-miterlimit:4;stroke-dasharray:none"
       inkscape:connector-curvature="0"
       sodipodi:nodetypes="cscccc" />
    <path
       id="path1997"
       d="m 22.208999,294.52498 c 0,-1.3988 -1.126149,-2.52491 -2.524999,-2.52491 -1.39885,0 -2.525,1.12611 -2.525,2.52491 L 17.159151,297 h 5.05 z"
       style="opacity:1;fill:#000000;fill-opacity:1;stroke:none;stroke-width:2.46500015;stroke-linecap:square;stroke-linejoin:miter;stroke-miterlimit:4;stroke-dasharray:none"
       inkscape:connector-curvature="0"
       sodipodi:nodetypes="cscccc" />
    <path
       sodipodi:nodetypes="cscccc"
       inkscape:connector-curvature="0"
       style="opacity:1;fill:#000000;fill-opacity:1;stroke:none;stroke-width:2.46500015;stroke-linecap:square;stroke-linejoin:miter;stroke-miterlimit:4;stroke-dasharray:none"
       d="m 2.47502,260.79027 c 1.3988,0 2.52491,-1.12615 2.52491,-2.525 0,-1.39885 -1.12611,-2.525 -2.52491,-2.525 L 0,255.74042 v 5.05 z"
       id="path1999" />
    <path
       id="path2001"
       d="m 2.47502,279.83979 c 1.3988,0 2.52491,-1.12615 2.52491,-2.525 0,-1.39885 -1.12611,-2.525 -2.52491,-2.525 L 0,274.78994 v 5.05 z"
       style="opacity:1;fill:#000000;fill-opacity:1;stroke:none;stroke-width:2.46500015;stroke-linecap:square;stroke-linejoin:miter;stroke-miterlimit:4;stroke-dasharray:none"
       inkscape:connector-curvature="0"
       sodipodi:nodetypes="cscccc" />
    <path
       id="path2003"
       d="m 2.47502,222.68979 c 1.3988,0 2.52491,-1.12615 2.52491,-2.525 0,-1.39885 -1.12611,-2.525 -2.52491,-2.525 L 0,217.63994 v 5.05 z"
       style="opacity:1;fill:#000000;fill-opacity:1;stroke:none;stroke-width:2.46500015;stroke-linecap:square;stroke-linejoin:miter;stroke-miterlimit:4;stroke-dasharray:none"
       inkscape:connector-curvature="0"
       sodipodi:nodetypes="cscccc" />
    <path
       sodipodi:nodetypes="cscccc"
       inkscape:connector-curvature="0"
       style="opacity:1;fill:#000000;fill-opacity:1;stroke:none;stroke-width:2.46500015;stroke-linecap:square;stroke-linejoin:miter;stroke-miterlimit:4;stroke-dasharray:none"
       d="m 2.47502,241.7393 c 1.3988,0 2.52491,-1.12614 2.52491,-2.52499 0,-1.39885 -1.12611,-2.525 -2.52491,-2.525 L 0,236.68946 v 5.05 z"
       id="path2005" />
    <rect
       style="opacity:1;fill:#00ff00;fill-opacity:1;stroke:none;stroke-width:2.46500015;stroke-linecap:square;stroke-linejoin:miter;stroke-miterlimit:4;stroke-dasharray:none"
       id="rect2054"
       width="13.999663"
       height="14.00018"
       x="22.210014"
       y="203.63977"
       rx="0.30000046" />
    <path
       style="opacity:1;fill:#f2f2f2;fill-opacity:1;stroke:none;stroke-width:9.316535;stroke-linecap:square;stroke-linejoin:miter;stroke-miterlimit:4;stroke-dasharray:none"
       d="M 5.8417969 762.10352 C 5.0341452 762.10352 4.3847656 762.75485 4.3847656 763.5625 L 4.3847656 828.67773 C 4.3847656 829.48539 5.0341452 830.13672 5.8417969 830.13672 L 70.957031 830.13672 C 71.764683 830.13672 72.416016 829.48539 72.416016 828.67773 L 72.416016 763.5625 C 72.416016 762.75485 71.764683 762.10352 70.957031 762.10352 L 5.8417969 762.10352 z M 77.841797 762.10352 C 77.034145 762.10352 76.382813 762.75485 76.382812 763.5625 L 76.382812 828.67773 C 76.382812 829.48539 77.034145 830.13672 77.841797 830.13672 L 142.95703 830.13672 C 143.76468 830.13672 144.41602 829.48539 144.41602 828.67773 L 144.41602 763.5625 C 144.41602 762.75485 143.76468 762.10352 142.95703 762.10352 L 77.841797 762.10352 z M 149.8418 762.10352 C 149.03415 762.10352 148.38477 762.75485 148.38477 763.5625 L 148.38477 828.67773 C 148.38477 829.48542 149.03415 830.13672 149.8418 830.13672 L 214.95703 830.13672 C 215.76468 830.13672 216.41602 829.48542 216.41602 828.67773 L 216.41602 763.5625 C 216.41602 762.75485 215.76468 762.10352 214.95703 762.10352 L 149.8418 762.10352 z M 221.8418 762.10352 C 221.03415 762.10352 220.38281 762.75485 220.38281 763.5625 L 220.38281 828.67773 C 220.38281 829.48542 221.03415 830.13672 221.8418 830.13672 L 286.95703 830.13672 C 287.76468 830.13672 288.41602 829.48542 288.41602 828.67773 L 288.41602 763.5625 C 288.41602 762.75485 287.76468 762.10352 286.95703 762.10352 L 221.8418 762.10352 z M 293.8418 762.10352 C 293.03415 762.10352 292.38477 762.75485 292.38477 763.5625 L 292.38477 828.67773 C 292.38477 829.48542 293.03415 830.13672 293.8418 830.13672 L 358.95703 830.13672 C 359.76468 830.13672 360.41602 829.48542 360.41602 828.67773 L 360.41602 763.5625 C 360.41602 762.75485 359.76468 762.10352 358.95703 762.10352 L 293.8418 762.10352 z M 365.8418 762.10352 C 365.03415 762.10352 364.38281 762.75485 364.38281 763.5625 L 364.38281 828.67773 C 364.38281 829.48542 365.03415 830.13672 365.8418 830.13672 L 430.95703 830.13672 C 431.76468 830.13672 432.41602 829.48542 432.41602 828.67773 L 432.41602 763.5625 C 432.41602 762.75485 431.76468 762.10352 430.95703 762.10352 L 365.8418 762.10352 z M 5.8417969 834.10352 C 5.0341452 834.10352 4.3847656 834.75485 4.3847656 835.5625 L 4.3847656 900.67773 C 4.3847656 901.48539 5.0341452 902.13477 5.8417969 902.13477 L 70.957031 902.13477 C 71.764683 902.13477 72.416016 901.48539 72.416016 900.67773 L 72.416016 835.5625 C 72.416016 834.75485 71.764683 834.10352 70.957031 834.10352 L 5.8417969 834.10352 z M 77.841797 834.10352 C 77.034145 834.10352 76.382813 834.75485 76.382812 835.5625 L 76.382812 900.67773 C 76.382812 901.48539 77.034145 902.13477 77.841797 902.13477 L 142.95703 902.13477 C 143.76468 902.13477 144.41602 901.48539 144.41602 900.67773 L 144.41602 835.5625 C 144.41602 834.75485 143.76468 834.10352 142.95703 834.10352 L 77.841797 834.10352 z M 149.8418 834.10352 C 149.03415 834.10352 148.38477 834.75485 148.38477 835.5625 L 148.38477 900.67773 C 148.38477 901.48542 149.03415 902.13477 149.8418 902.13477 L 214.95703 902.13477 C 215.76468 902.13477 216.41602 901.48542 216.41602 900.67773 L 216.41602 835.5625 C 216.41602 834.75485 215.76468 834.10352 214.95703 834.10352 L 149.8418 834.10352 z M 221.8418 834.10352 C 221.03415 834.10352 220.38281 834.75485 220.38281 835.5625 L 220.38281 900.67773 C 220.38281 901.48542 221.03415 902.13477 221.8418 902.13477 L 286.95703 902.13477 C 287.76468 902.13477 288.41602 901.48542 288.41602 900.67773 L 288.41602 835.5625 C 288.41602 834.75485 287.76468 834.10352 286.95703 834.10352 L 221.8418 834.10352 z M 293.8418 834.10352 C 293.03415 834.10352 292.38477 834.75485 292.38477 835.5625 L 292.38477 900.67773 C 292.38477 901.48542 293.03415 902.13477 293.8418 902.13477 L 358.95703 902.13477 C 359.76468 902.13477 360.41602 901.48542 360.41602 900.67773 L 360.41602 835.5625 C 360.41602 834.75485 359.76468 834.10352 358.95703 834.10352 L 293.8418 834.10352 z M 365.8418 834.10352 C 365.03415 834.10352 364.38281 834.75485 364.38281 835.5625 L 364.38281 900.67773 C 364.38281 901.48542 365.03415 902.13477 365.8418 902.13477 L 430.95703 902.13477 C 431.76468 902.13477 432.41602 901.48542 432.41602 900.67773 L 432.41602 835.5625 C 432.41602 834.75485 431.76468 834.10352 430.95703 834.10352 L 365.8418 834.10352 z M 5.8417969 906.10352 C 5.0341451 906.10352 4.3847656 906.75485 4.3847656 907.5625 L 4.3847656 972.67773 C 4.3847656 973.48542 5.0341451 974.13672 5.8417969 974.13672 L 70.957031 974.13672 C 71.764682 974.13672 72.416016 973.48542 72.416016 972.67773 L 72.416016 907.5625 C 72.416016 906.75485 71.764682 906.10352 70.957031 906.10352 L 5.8417969 906.10352 z M 77.841797 906.10352 C 77.034146 906.10352 76.382812 906.75485 76.382812 907.5625 L 76.382812 972.67773 C 76.382812 973.48542 77.034146 974.13672 77.841797 974.13672 L 142.95703 974.13672 C 143.76468 974.13672 144.41602 973.48542 144.41602 972.67773 L 144.41602 907.5625 C 144.41602 906.75485 143.76468 906.10352 142.95703 906.10352 L 77.841797 906.10352 z M 149.8418 906.10352 C 149.03415 906.10352 148.38477 906.75485 148.38477 907.5625 L 148.38477 972.67773 C 148.38477 973.48542 149.03415 974.13672 149.8418 974.13672 L 214.95703 974.13672 C 215.76468 974.13672 216.41602 973.48542 216.41602 972.67773 L 216.41602 907.5625 C 216.41602 906.75485 215.76468 906.10352 214.95703 906.10352 L 149.8418 906.10352 z M 221.8418 906.10352 C 221.03415 906.10352 220.38281 906.75485 220.38281 907.5625 L 220.38281 972.67773 C 220.38281 973.48542 221.03415 974.13672 221.8418 974.13672 L 286.95703 974.13672 C 287.76468 974.13672 288.41602 973.48542 288.41602 972.67773 L 288.41602 907.5625 C 288.41602 906.75485 287.76468 906.10352 286.95703 906.10352 L 221.8418 906.10352 z M 293.8418 906.10352 C 293.03415 906.10352 292.38477 906.75485 292.38477 907.5625 L 292.38477 972.67773 C 292.38477 973.48542 293.03415 974.13672 293.8418 974.13672 L 358.95703 974.13672 C 359.76468 974.13672 360.41602 973.48542 360.41602 972.67773 L 360.41602 907.5625 C 360.41602 906.75485 359.76468 906.10352 358.95703 906.10352 L 293.8418 906.10352 z M 365.8418 906.10352 C 365.03415 906.10352 364.38281 906.75485 364.38281 907.5625 L 364.38281 972.67773 C 364.38281 973.48542 365.03415 974.13672 365.8418 974.13672 L 430.95703 974.13672 C 431.76468 974.13672 432.41602 973.48542 432.41602 972.67773 L 432.41602 907.5625 C 432.41602 906.75485 431.76468 906.10352 430.95703 906.10352 L 365.8418 906.10352 z M 5.8417969 978.10352 C 5.0341451 978.10352 4.3847656 978.75485 4.3847656 979.5625 L 4.3847656 1044.6777 C 4.3847656 1045.4854 5.0341451 1046.1348 5.8417969 1046.1348 L 70.957031 1046.1348 C 71.764682 1046.1348 72.416016 1045.4854 72.416016 1044.6777 L 72.416016 979.5625 C 72.416016 978.75485 71.764682 978.10352 70.957031 978.10352 L 5.8417969 978.10352 z M 77.841797 978.10352 C 77.034146 978.10352 76.382812 978.75485 76.382812 979.5625 L 76.382812 1044.6777 C 76.382812 1045.4854 77.034146 1046.1348 77.841797 1046.1348 L 142.95703 1046.1348 C 143.76468 1046.1348 144.41602 1045.4854 144.41602 1044.6777 L 144.41602 979.5625 C 144.41602 978.75485 143.76468 978.10352 142.95703 978.10352 L 77.841797 978.10352 z M 149.8418 978.10352 C 149.03415 978.10352 148.38477 978.75485 148.38477 979.5625 L 148.38477 1044.6777 C 148.38477 1045.4854 149.03415 1046.1348 149.8418 1046.1348 L 214.95703 1046.1348 C 215.76468 1046.1348 216.41602 1045.4854 216.41602 1044.6777 L 216.41602 979.5625 C 216.41602 978.75485 215.76468 978.10352 214.95703 978.10352 L 149.8418 978.10352 z M 221.8418 978.10352 C 221.03415 978.10352 220.38281 978.75485 220.38281 979.5625 L 220.38281 1044.6777 C 220.38281 1045.4854 221.03415 1046.1348 221.8418 1046.1348 L 286.95703 1046.1348 C 287.76468 1046.1348 288.41602 1045.4854 288.41602 1044.6777 L 288.41602 979.5625 C 288.41602 978.75485 287.76468 978.10352 286.95703 978.10352 L 221.8418 978.10352 z M 293.8418 978.10352 C 293.03415 978.10352 292.38477 978.75485 292.38477 979.5625 L 292.38477 1044.6777 C 292.38477 1045.4854 293.03415 1046.1348 293.8418 1046.1348 L 358.95703 1046.1348 C 359.76468 1046.1348 360.41602 1045.4854 360.41602 1044.6777 L 360.41602 979.5625 C 360.41602 978.75485 359.76468 978.10352 358.95703 978.10352 L 293.8418 978.10352 z M 365.8418 978.10352 C 365.03415 978.10352 364.38281 978.75485 364.38281 979.5625 L 364.38281 1044.6777 C 364.38281 1045.4854 365.03415 1046.1348 365.8418 1046.1348 L 430.95703 1046.1348 C 431.76468 1046.1348 432.41602 1045.4854 432.41602 1044.6777 L 432.41602 979.5625 C 432.41602 978.75485 431.76468 978.10352 430.95703 978.10352 L 365.8418 978.10352 z M 5.8417969 1050.1035 C 5.0341451 1050.1035 4.3847656 1050.7549 4.3847656 1051.5625 L 4.3847656 1116.6777 C 4.3847656 1117.4854 5.0341451 1118.1367 5.8417969 1118.1367 L 70.957031 1118.1367 C 71.764682 1118.1367 72.416016 1117.4854 72.416016 1116.6777 L 72.416016 1051.5625 C 72.416016 1050.7549 71.764682 1050.1035 70.957031 1050.1035 L 5.8417969 1050.1035 z M 77.841797 1050.1035 C 77.034146 1050.1035 76.382813 1050.7549 76.382812 1051.5625 L 76.382812 1116.6777 C 76.382812 1117.4854 77.034146 1118.1367 77.841797 1118.1367 L 142.95703 1118.1367 C 143.76468 1118.1367 144.41602 1117.4854 144.41602 1116.6777 L 144.41602 1051.5625 C 144.41602 1050.7549 143.76468 1050.1035 142.95703 1050.1035 L 77.841797 1050.1035 z M 149.8418 1050.1035 C 149.03415 1050.1035 148.38477 1050.7549 148.38477 1051.5625 L 148.38477 1116.6777 C 148.38477 1117.4854 149.03415 1118.1367 149.8418 1118.1367 L 214.95703 1118.1367 C 215.76468 1118.1367 216.41602 1117.4854 216.41602 1116.6777 L 216.41602 1051.5625 C 216.41602 1050.7549 215.76468 1050.1035 214.95703 1050.1035 L 149.8418 1050.1035 z M 221.8418 1050.1035 C 221.03415 1050.1035 220.38281 1050.7549 220.38281 1051.5625 L 220.38281 1116.6777 C 220.38281 1117.4854 221.03415 1118.1367 221.8418 1118.1367 L 286.95703 1118.1367 C 287.76468 1118.1367 288.41602 1117.4854 288.41602 1116.6777 L 288.41602 1051.5625 C 288.41602 1050.7549 287.76468 1050.1035 286.95703 1050.1035 L 221.8418 1050.1035 z M 293.8418 1050.1035 C 293.03415 1050.1035 292.38477 1050.7549 292.38477 1051.5625 L 292.38477 1116.6777 C 292.38477 1117.4854 293.03415 1118.1367 293.8418 1118.1367 L 358.95703 1118.1367 C 359.76468 1118.1367 360.41602 1117.4854 360.41602 1116.6777 L 360.41602 1051.5625 C 360.41602 1050.7549 359.76468 1050.1035 358.95703 1050.1035 L 293.8418 1050.1035 z M 365.8418 1050.1035 C 365.03415 1050.1035 364.38281 1050.7549 364.38281 1051.5625 L 364.38281 1116.6777 C 364.38281 1117.4854 365.03415 1118.1367 365.8418 1118.1367 L 430.95703 1118.1367 C 431.76468 1118.1367 432.41602 1117.4854 432.41602 1116.6777 L 432.41602 1051.5625 C 432.41602 1050.7549 431.76468 1050.1035 430.95703 1050.1035 L 365.8418 1050.1035 z "
       transform="scale(0.26458333)"
       id="rect2060" />
  </g>
</svg>
