<?xml version="1.0" encoding="UTF-8" standalone="no"?>
<!-- Created with Inkscape (http://www.inkscape.org/) -->

<svg
   xmlns:dc="http://purl.org/dc/elements/1.1/"
   xmlns:cc="http://creativecommons.org/ns#"
   xmlns:rdf="http://www.w3.org/1999/02/22-rdf-syntax-ns#"
   xmlns:svg="http://www.w3.org/2000/svg"
   xmlns="http://www.w3.org/2000/svg"
   xmlns:sodipodi="http://sodipodi.sourceforge.net/DTD/sodipodi-0.dtd"
   xmlns:inkscape="http://www.inkscape.org/namespaces/inkscape"
   width="210mm"
   height="297mm"
   viewBox="0 0 210 297"
   version="1.1"
   id="svg877"
   inkscape:version="0.92.2 5c3e80d, 2017-08-06"
   sodipodi:docname="top.svg">
  <defs
     id="defs871" />
  <sodipodi:namedview
     id="base"
     pagecolor="#ffffff"
     bordercolor="#666666"
     borderopacity="1.0"
     inkscape:pageopacity="0.0"
     inkscape:pageshadow="2"
     inkscape:zoom="1.28"
     inkscape:cx="297.95157"
     inkscape:cy="17.805662"
     inkscape:document-units="mm"
     inkscape:current-layer="layer1"
     showgrid="false"
     showborder="false"
     showguides="true"
     inkscape:guide-bbox="true"
     inkscape:window-width="916"
     inkscape:window-height="849"
     inkscape:window-x="1766"
     inkscape:window-y="72"
     inkscape:window-maximized="0"
     inkscape:snap-bbox="true"
     inkscape:bbox-paths="true"
     inkscape:bbox-nodes="true"
     inkscape:snap-bbox-edge-midpoints="true"
     inkscape:snap-bbox-midpoints="true"
     inkscape:snap-to-guides="true"
     inkscape:snap-grids="true"
     inkscape:snap-nodes="true"
     inkscape:snap-object-midpoints="true"
     inkscape:snap-center="true"
     inkscape:object-paths="true"
     inkscape:snap-intersection-paths="true"
     inkscape:snap-smooth-nodes="true"
     inkscape:snap-midpoints="true"
     inkscape:snap-global="false">
    <sodipodi:guide
       position="0,0"
       orientation="0,1"
       id="guide1422"
       inkscape:locked="false"
       inkscape:label=""
       inkscape:color="rgb(0,0,255)" />
    <sodipodi:guide
       position="0,0"
       orientation="1,0"
       id="guide1424"
       inkscape:locked="false"
       inkscape:label=""
       inkscape:color="rgb(0,0,255)" />
    <sodipodi:guide
       position="115.57,0"
       orientation="1,0"
       id="guide1426"
       inkscape:locked="false"
       inkscape:label=""
       inkscape:color="rgb(0,0,255)" />
    <sodipodi:guide
       position="0,107.95"
       orientation="0,1"
       id="guide1428"
       inkscape:locked="false"
       inkscape:label=""
       inkscape:color="rgb(0,0,255)" />
    <sodipodi:guide
       position="0,0"
       orientation="-0.70710678,0.70710678"
       id="guide1553"
       inkscape:locked="false" />
    <sodipodi:guide
       position="115.57,0"
       orientation="0.70710678,0.70710678"
       id="guide2042"
       inkscape:locked="false" />
    <sodipodi:guide
       position="57.784999,57.785001"
       orientation="1,0"
       id="guide2044"
       inkscape:locked="false" />
    <sodipodi:guide
       position="36.209677,86.360142"
       orientation="0,1"
       id="guide2102"
       inkscape:locked="false" />
    <sodipodi:guide
       position="19.685,90.26866"
       orientation="1,0"
       id="guide106"
       inkscape:locked="false"
       inkscape:label=""
       inkscape:color="rgb(0,0,255)" />
    <sodipodi:guide
       position="36.22006,93.370063"
       orientation="-0.70710678,0.70710678"
       id="guide15314"
       inkscape:locked="false" />
    <sodipodi:guide
       position="17.170061,93.370063"
       orientation="-0.70710678,0.70710678"
       id="guide15316"
       inkscape:locked="false" />
    <sodipodi:guide
       position="3.2000609,93.370063"
       orientation="0.70710678,0.70710678"
       id="guide15318"
       inkscape:locked="false" />
    <sodipodi:guide
       position="29.210138,86.360144"
       orientation="1,0"
       id="guide15320"
       inkscape:locked="false" />
    <sodipodi:guide
       position="10.185061,86.385065"
       orientation="1,0"
       id="guide15322"
       inkscape:locked="false" />
    <sodipodi:guide
       position="-3.2238805,101.55224"
       orientation="0,1"
       id="guide15324"
       inkscape:locked="false" />
  </sodipodi:namedview>
  <metadata
     id="metadata874">
    <rdf:RDF>
      <cc:Work
         rdf:about="">
        <dc:format>image/svg+xml</dc:format>
        <dc:type
           rdf:resource="http://purl.org/dc/dcmitype/StillImage" />
        <dc:title></dc:title>
      </cc:Work>
    </rdf:RDF>
  </metadata>
  <g
     inkscape:label="Layer 1"
     inkscape:groupmode="layer"
     id="layer1">
    <path
       style="opacity:1;fill:#f2f2f2;fill-opacity:1;stroke:none;stroke-width:2.46499991;stroke-linecap:square;stroke-linejoin:miter;stroke-miterlimit:4;stroke-dasharray:none"
       d="m 1.545642,201.63989 c -0.2136911,0 -0.3855061,0.17233 -0.3855061,0.38602 v 17.2284 c 0,0.2137 0.171815,0.38603 0.3855061,0.38603 h 17.228405 c 0.213691,0 0.386023,-0.17233 0.386023,-0.38603 v -17.2284 c 0,-0.21369 -0.172332,-0.38602 -0.386023,-0.38602 z m 19.05,0 c -0.213692,0 -0.386023,0.17233 -0.386024,0.38602 v 17.2284 c 0,0.2137 0.172332,0.38603 0.386024,0.38603 h 17.228405 c 0.21369,0 0.386024,-0.17233 0.386024,-0.38603 v -17.2284 c 0,-0.21369 -0.172334,-0.38602 -0.386024,-0.38602 z m 19.05,0 c -0.213691,0 -0.385506,0.17233 -0.385506,0.38602 v 17.2284 c 0,0.2137 0.171815,0.38603 0.385506,0.38603 h 17.228404 c 0.213691,0 0.386025,-0.17233 0.386025,-0.38603 v -17.2284 c 0,-0.21369 -0.172334,-0.38602 -0.386025,-0.38602 z m 19.05,0 c -0.213691,0 -0.386025,0.17233 -0.386025,0.38602 v 17.2284 c 0,0.2137 0.172334,0.38603 0.386025,0.38603 h 17.228404 c 0.213691,0 0.386025,-0.17233 0.386025,-0.38603 v -17.2284 c 0,-0.21369 -0.172334,-0.38602 -0.386025,-0.38602 z m 19.05,0 c -0.213691,0 -0.385506,0.17233 -0.385506,0.38602 v 17.2284 c 0,0.2137 0.171815,0.38603 0.385506,0.38603 h 17.228401 c 0.21369,0 0.38603,-0.17233 0.38603,-0.38603 v -17.2284 c 0,-0.21369 -0.17234,-0.38602 -0.38603,-0.38602 z m 19.050001,0 c -0.21369,0 -0.38603,0.17233 -0.38603,0.38602 v 17.2284 c 0,0.2137 0.17234,0.38603 0.38603,0.38603 h 17.228397 c 0.21369,0 0.38603,-0.17233 0.38603,-0.38603 v -17.2284 c 0,-0.21369 -0.17234,-0.38602 -0.38603,-0.38602 z m -95.250001,19.05 c -0.2136911,0 -0.3855061,0.17233 -0.3855061,0.38602 v 17.2284 c 0,0.2137 0.171815,0.38551 0.3855061,0.38551 h 17.228405 c 0.213691,0 0.386023,-0.17181 0.386023,-0.38551 v -17.2284 c 0,-0.21369 -0.172332,-0.38602 -0.386023,-0.38602 z m 19.05,0 c -0.213692,0 -0.386023,0.17233 -0.386024,0.38602 v 17.2284 c 0,0.2137 0.172332,0.38551 0.386024,0.38551 h 17.228405 c 0.21369,0 0.386024,-0.17181 0.386024,-0.38551 v -17.2284 c 0,-0.21369 -0.172334,-0.38602 -0.386024,-0.38602 z m 19.05,0 c -0.213691,0 -0.385506,0.17233 -0.385506,0.38602 v 17.2284 c 0,0.2137 0.171815,0.38551 0.385506,0.38551 h 17.228404 c 0.213691,0 0.386025,-0.17181 0.386025,-0.38551 v -17.2284 c 0,-0.21369 -0.172334,-0.38602 -0.386025,-0.38602 z m 19.05,0 c -0.213691,0 -0.386025,0.17233 -0.386025,0.38602 v 17.2284 c 0,0.2137 0.172334,0.38551 0.386025,0.38551 h 17.228404 c 0.213691,0 0.386025,-0.17181 0.386025,-0.38551 v -17.2284 c 0,-0.21369 -0.172334,-0.38602 -0.386025,-0.38602 z m 19.05,0 c -0.213691,0 -0.385506,0.17233 -0.385506,0.38602 v 17.2284 c 0,0.2137 0.171815,0.38551 0.385506,0.38551 h 17.228401 c 0.21369,0 0.38603,-0.17181 0.38603,-0.38551 v -17.2284 c 0,-0.21369 -0.17234,-0.38602 -0.38603,-0.38602 z m 19.050001,0 c -0.21369,0 -0.38603,0.17233 -0.38603,0.38602 v 17.2284 c 0,0.2137 0.17234,0.38551 0.38603,0.38551 h 17.228397 c 0.21369,0 0.38603,-0.17181 0.38603,-0.38551 v -17.2284 c 0,-0.21369 -0.17234,-0.38602 -0.38603,-0.38602 z m -95.250001,19.05 c -0.2136912,0 -0.3855061,0.17233 -0.3855061,0.38602 v 17.2284 c 0,0.2137 0.1718149,0.38603 0.3855061,0.38603 h 17.228405 c 0.213691,0 0.386023,-0.17233 0.386023,-0.38603 v -17.2284 c 0,-0.21369 -0.172332,-0.38602 -0.386023,-0.38602 z m 19.05,0 c -0.213691,0 -0.386024,0.17233 -0.386024,0.38602 v 17.2284 c 0,0.2137 0.172333,0.38603 0.386024,0.38603 h 17.228405 c 0.21369,0 0.386024,-0.17233 0.386024,-0.38603 v -17.2284 c 0,-0.21369 -0.172334,-0.38602 -0.386024,-0.38602 z m 19.05,0 c -0.213691,0 -0.385506,0.17233 -0.385506,0.38602 v 17.2284 c 0,0.2137 0.171815,0.38603 0.385506,0.38603 h 17.228404 c 0.213691,0 0.386025,-0.17233 0.386025,-0.38603 v -17.2284 c 0,-0.21369 -0.172334,-0.38602 -0.386025,-0.38602 z m 19.05,0 c -0.213691,0 -0.386025,0.17233 -0.386025,0.38602 v 17.2284 c 0,0.2137 0.172334,0.38603 0.386025,0.38603 h 17.228404 c 0.213691,0 0.386025,-0.17233 0.386025,-0.38603 v -17.2284 c 0,-0.21369 -0.172334,-0.38602 -0.386025,-0.38602 z m 19.05,0 c -0.213691,0 -0.385506,0.17233 -0.385506,0.38602 v 17.2284 c 0,0.2137 0.171815,0.38603 0.385506,0.38603 h 17.228401 c 0.21369,0 0.38603,-0.17233 0.38603,-0.38603 v -17.2284 c 0,-0.21369 -0.17234,-0.38602 -0.38603,-0.38602 z m 19.050001,0 c -0.21369,0 -0.38603,0.17233 -0.38603,0.38602 v 17.2284 c 0,0.2137 0.17234,0.38603 0.38603,0.38603 h 17.228397 c 0.21369,0 0.38603,-0.17233 0.38603,-0.38603 v -17.2284 c 0,-0.21369 -0.17234,-0.38602 -0.38603,-0.38602 z m -95.250001,19.05 c -0.2136912,0 -0.3855061,0.17233 -0.3855061,0.38602 v 17.22839 c 0,0.21371 0.1718149,0.38553 0.3855061,0.38553 h 17.228405 c 0.213691,0 0.386023,-0.17182 0.386023,-0.38553 v -17.22839 c 0,-0.21369 -0.172332,-0.38602 -0.386023,-0.38602 z m 19.05,0 c -0.213691,0 -0.386024,0.17233 -0.386024,0.38602 v 17.22839 c 0,0.21371 0.172333,0.38553 0.386024,0.38553 h 17.228405 c 0.21369,0 0.386024,-0.17182 0.386024,-0.38553 v -17.22839 c 0,-0.21369 -0.172334,-0.38602 -0.386024,-0.38602 z m 19.05,0 c -0.213691,0 -0.385506,0.17233 -0.385506,0.38602 v 17.22839 c 0,0.21371 0.171815,0.38553 0.385506,0.38553 h 17.228404 c 0.213691,0 0.386025,-0.17182 0.386025,-0.38553 v -17.22839 c 0,-0.21369 -0.172334,-0.38602 -0.386025,-0.38602 z m 19.05,0 c -0.213691,0 -0.386025,0.17233 -0.386025,0.38602 v 17.22839 c 0,0.21371 0.172334,0.38553 0.386025,0.38553 h 17.228404 c 0.213691,0 0.386025,-0.17182 0.386025,-0.38553 v -17.22839 c 0,-0.21369 -0.172334,-0.38602 -0.386025,-0.38602 z m 19.05,0 c -0.213691,0 -0.385506,0.17233 -0.385506,0.38602 v 17.22839 c 0,0.21371 0.171815,0.38553 0.385506,0.38553 h 17.228401 c 0.21369,0 0.38603,-0.17182 0.38603,-0.38553 v -17.22839 c 0,-0.21369 -0.17234,-0.38602 -0.38603,-0.38602 z m 19.050001,0 c -0.21369,0 -0.38603,0.17233 -0.38603,0.38602 v 17.22839 c 0,0.21371 0.17234,0.38553 0.38603,0.38553 h 17.228397 c 0.21369,0 0.38603,-0.17182 0.38603,-0.38553 v -17.22839 c 0,-0.21369 -0.17234,-0.38602 -0.38603,-0.38602 z M 1.545642,277.83988 c -0.2136912,0 -0.3855061,0.17235 -0.3855061,0.38603 v 17.22839 c 0,0.21371 0.1718149,0.38603 0.3855061,0.38603 h 17.228405 c 0.213691,0 0.386023,-0.17232 0.386023,-0.38603 v -17.22839 c 0,-0.21368 -0.172332,-0.38603 -0.386023,-0.38603 z m 19.05,0 c -0.213691,0 -0.386023,0.17235 -0.386024,0.38603 v 17.22839 c 0,0.21371 0.172333,0.38603 0.386024,0.38603 h 17.228405 c 0.21369,0 0.386024,-0.17232 0.386024,-0.38603 v -17.22839 c 0,-0.21368 -0.172334,-0.38603 -0.386024,-0.38603 z m 19.05,0 c -0.213691,0 -0.385506,0.17235 -0.385506,0.38603 v 17.22839 c 0,0.21371 0.171815,0.38603 0.385506,0.38603 h 17.228404 c 0.213691,0 0.386025,-0.17232 0.386025,-0.38603 v -17.22839 c 0,-0.21368 -0.172334,-0.38603 -0.386025,-0.38603 z m 19.05,0 c -0.213691,0 -0.386025,0.17235 -0.386025,0.38603 v 17.22839 c 0,0.21371 0.172334,0.38603 0.386025,0.38603 h 17.228404 c 0.213691,0 0.386025,-0.17232 0.386025,-0.38603 v -17.22839 c 0,-0.21368 -0.172334,-0.38603 -0.386025,-0.38603 z m 19.05,0 c -0.213691,0 -0.385506,0.17235 -0.385506,0.38603 v 17.22839 c 0,0.21371 0.171815,0.38603 0.385506,0.38603 h 17.228401 c 0.21369,0 0.38603,-0.17232 0.38603,-0.38603 v -17.22839 c 0,-0.21368 -0.17234,-0.38603 -0.38603,-0.38603 z m 19.050001,0 c -0.21369,0 -0.38603,0.17235 -0.38603,0.38603 v 17.22839 c 0,0.21371 0.17234,0.38603 0.38603,0.38603 h 17.228397 c 0.21369,0 0.38603,-0.17232 0.38603,-0.38603 v -17.22839 c 0,-0.21368 -0.17234,-0.38603 -0.38603,-0.38603 z"
       id="rect2060"
       inkscape:connector-curvature="0" />
    <path
       style="opacity:1;fill:#aa0000;fill-opacity:1;stroke:none;stroke-width:9.31653595;stroke-linecap:square;stroke-linejoin:miter;stroke-miterlimit:4;stroke-dasharray:none"
       d="M 19.201172,714.51953 C 8.7762724,714.52853 0.26352647,722.8552 0.0234375,733.27734 H 0 v 142.36524 95.35351 132.76561 h 0.0234375 c 0.24009431,10.4221 8.7528387,18.7485 19.1777345,18.7578 H 417.60156 c 10.4249,-0.01 18.93765,-8.3357 19.17774,-18.7578 h 0.0234 v -0.4433 -132.32231 -95.35351 -141.92188 -0.44336 h -0.0234 c -0.24009,-10.42214 -8.75284,-18.74849 -19.17774,-18.75781 z m 19.292969,20.31816 c 2.087197,1.2e-4 3.779171,1.6921 3.779297,3.7793 9.52e-4,2.08796 -1.691339,3.78112 -3.779297,3.78125 -2.087958,-1.3e-4 -3.780249,-1.69329 -3.779297,-3.78125 1.26e-4,-2.0872 1.6921,-3.77918 3.779297,-3.7793 z m 71.906249,0 c 2.0872,1.2e-4 3.77917,1.6921 3.7793,3.7793 9.5e-4,2.08796 -1.69134,3.78112 -3.7793,3.78125 -2.08796,-1.3e-4 -3.78025,-1.69329 -3.7793,-3.78125 1.3e-4,-2.0872 1.6921,-3.77918 3.7793,-3.7793 z m -98.455078,34.82442 h 52.91211 v 52.91406 h -52.91211 z m 71.998047,0 52.912111,8.9e-4 v 52.91317 H 83.943359 Z m 72.000001,0 h 52.91211 v 52.91406 h -52.91211 z m 71.99805,0 h 52.91406 v 52.91406 h -52.91406 z m 72.00195,0 h 52.91211 v 52.91406 h -52.91211 z m 71.99805,0 h 52.91406 v 52.91406 h -52.91406 z m -359.996098,72 h 52.91211 v 52.91406 h -52.91211 z m 71.998047,0 h 52.912111 v 52.91406 H 83.943359 Z m 72.000001,0 h 52.91211 v 52.91406 h -52.91211 z m 71.99805,0 h 52.91406 v 52.91406 h -52.91406 z m 72.00195,0 h 52.91211 v 52.91406 h -52.91211 z m 71.99805,0 h 52.91406 v 52.91406 h -52.91406 z m -359.996098,72 h 52.91211 v 52.91406 h -52.91211 z m 71.998047,0 h 52.912111 v 52.91406 H 83.943359 Z m 72.000001,0 h 52.91211 v 52.91406 h -52.91211 z m 71.99805,0 h 52.91406 v 52.91406 h -52.91406 z m 72.00195,0 h 52.91211 v 52.91406 h -52.91211 z m 71.99805,0 h 52.91406 v 52.91406 h -52.91406 z m -359.996098,72 h 52.91211 v 52.91409 h -52.91211 z m 71.998047,0 h 52.912111 v 52.91409 H 83.943359 Z m 72.000001,0 h 52.91211 v 52.91409 h -52.91211 z m 71.99805,0 h 52.91406 v 52.91409 h -52.91406 z m 72.00195,0 h 52.91211 v 52.91409 h -52.91211 z m 71.99805,0 h 52.91406 v 52.91409 H 371.94141 Z M 11.945312,1057.6621 h 52.91211 v 52.9141 h -52.91211 z m 71.998047,0 h 52.912111 v 52.9141 H 83.943359 Z m 72.000001,0 h 52.91211 v 52.9141 h -52.91211 z m 71.99805,0 h 52.91406 v 52.9141 h -52.91406 z m 72.00195,0 h 52.91211 v 52.9141 h -52.91211 z m 71.99805,0 h 52.91406 v 52.9141 h -52.91406 z"
       id="path1430"
       inkscape:connector-curvature="0"
       sodipodi:nodetypes="ccccccccccccccccccccccccccccccccccccccccccccccccccccccccccccccccccccccccccccccccccccccccccccccccccccccccccccccccccccccccccccccccccccccccccccccccccccccccccccccccccccccccccccccccccc"
       transform="scale(0.26458333)" />
    <path
       style="opacity:1;fill:#d35f5f;fill-opacity:1;stroke:none;stroke-width:2.46500015;stroke-linecap:square;stroke-linejoin:miter;stroke-miterlimit:4;stroke-dasharray:none"
       d="M 5.0797933,189.04996 C 2.2654735,189.04996 0,191.31543 0,194.12975 v 97.79041 c 0,2.81432 2.2654735,5.07979 5.0797933,5.07979 h 12.0793657 5.049821 14.00018 5.049819 13.999662 5.049822 14.001213 5.049821 13.999662 5.049819 12.080922 c 2.81432,0 5.0803,-2.26547 5.0803,-5.07979 v -97.79041 c 0,-2.81432 -2.26598,-5.07979 -5.0803,-5.07979 H 61.784859 v 1.99988 h 1.375108 v 10.86032 h -10.70012 v -10.86032 h 1.324983 v -1.99988 H 23.684859 v 1.99988 h 0.86713 v 10.86032 h -9.684163 v -10.86032 h 0.817005 v -1.99988 z m 0,1.99988 h 7.7881547 v 10.86032 1.72961 h 13.68392 v -1.72961 -10.86032 h 23.908099 v 10.86032 1.72961 h 4.799709 v 14.00018 h -4.999697 v 1.49965 h -3.999753 v -1.49965 H 31.20998 v 1.49965 h -3.999754 v -1.49965 H 24.734924 12.160498 v 1.49965 H 8.1602254 v -1.49965 H 6.2140909 1.9998779 v -23.5102 c 0,-1.70632 1.3735947,-3.0799 3.0799154,-3.07991 z m 60.0800537,0 H 110.4899 c 1.70631,0 3.07991,1.37359 3.07991,3.07991 v 23.5102 h -3.68505 -2.4753 v 1.49965 h -3.99975 v -1.49965 H 91.363931 88.359979 v 1.49965 h -3.999754 v -1.49965 H 79.888664 69.309463 v 1.49965 h -3.999756 v -1.49965 h -4.999178 v -14.00018 h 4.849318 v -1.72961 z M 8.1602254,221.19012 h 4.0002726 v 1.49965 h 12.574426 2.475302 v -1.49965 h 3.999754 v 1.49965 h 15.050246 v -1.49965 h 3.999753 v 1.49965 h 4.999697 v 14.00018 h -4.999697 v 1.50016 h -3.999753 v -1.50016 H 31.20998 v 1.50016 h -3.999754 v -1.50016 H 24.734924 12.160498 v 1.50016 H 8.1602254 v -1.50016 H 6.2140909 1.9998779 v -14.00018 h 4.214213 1.9461345 z m 57.1494816,0 h 3.999756 v 1.49965 h 10.579201 4.471561 v -1.49965 h 3.999754 v 1.49965 h 3.003952 12.045779 v -1.49965 h 3.99975 v 1.49965 h 2.4753 3.68505 v 14.00018 h -3.68505 -2.4753 v 1.50016 h -3.99975 v -1.50016 H 91.363931 88.359979 v 1.50016 h -3.999754 v -1.50016 H 79.888664 69.309463 v 1.50016 h -3.999756 v -1.50016 h -4.999178 v -14.00018 h 4.999178 z M 8.1602254,240.2396 h 4.0002726 v 1.50017 h 12.574426 2.475302 v -1.50017 h 3.999754 v 1.50017 h 15.050246 v -1.50017 h 3.999753 v 1.50017 h 4.999697 v 9.62473 4.37545 h -4.999697 v 1.49965 h -3.999753 v -1.49965 H 31.20998 v 1.49965 h -3.999754 v -1.49965 H 24.734924 12.160498 v 1.49965 H 8.1602254 v -1.49965 H 6.2140909 1.9998779 v -14.00018 h 4.214213 1.9461345 z m 57.1494816,0 h 3.999756 v 1.50017 h 10.579201 4.471561 v -1.50017 h 3.999754 v 1.50017 h 3.003952 12.045779 v -1.50017 h 3.99975 v 1.50017 h 2.4753 3.68505 v 14.00018 h -3.68505 -2.4753 v 1.49965 h -3.99975 v -1.49965 H 91.363931 88.359979 v 1.49965 h -3.999754 v -1.49965 H 79.888664 69.309463 v 1.49965 h -3.999756 v -1.49965 h -4.999178 v -4.37545 -9.62473 h 4.999178 z M 8.1602254,259.29012 h 4.0002726 v 1.49965 h 12.574426 2.475302 v -1.49965 h 3.999754 v 1.49965 h 15.050246 v -1.49965 h 3.999753 v 1.49965 h 4.999697 v 14.00018 h -4.999697 v 1.50016 h -3.999753 v -1.50016 H 31.20998 v 1.50016 h -3.999754 v -1.50016 H 24.734924 12.160498 v 1.50016 H 8.1602254 v -1.50016 H 6.2140909 1.9998779 v -14.00018 h 4.214213 1.9461345 z m 57.1494816,0 h 3.999756 v 1.49965 h 10.579201 4.471561 v -1.49965 h 3.999754 v 1.49965 h 3.003952 12.045779 v -1.49965 h 3.99975 v 1.49965 h 2.4753 3.68505 v 14.00018 h -3.68505 -2.4753 v 1.50016 h -3.99975 v -1.50016 H 91.363931 88.359979 v 1.50016 h -3.999754 v -1.50016 H 79.888664 69.309463 v 1.50016 h -3.999756 v -1.50016 h -4.999178 v -14.00018 h 4.999178 z M 8.1602254,278.34011 h 4.0002726 v 1.49965 h 12.574426 2.475302 v -1.49965 h 3.999754 v 1.49965 h 15.050246 v -1.49965 h 3.999753 v 1.49965 h 4.999697 v 14.00019 h -4.999697 v 0.8599 0.63973 h -3.999753 v -0.63973 -0.8599 H 31.20998 v 0.8599 0.63973 h -3.999754 v -0.63973 -0.8599 H 24.734924 12.160498 v 0.8599 0.63973 H 8.1602254 v -0.63973 -0.8599 H 6.2140909 2.944523 c -0.5818561,-0.55964 -0.9446451,-1.34519 -0.9446451,-2.22004 v -11.78015 h 4.214213 1.9461345 z m 57.1494816,0 h 3.999756 v 1.49965 h 10.579201 4.471561 v -1.49965 h 3.999754 v 1.49965 h 3.003952 12.045779 v -1.49965 h 3.99975 v 1.49965 h 2.4753 3.68505 v 11.78015 c 0,0.87485 -0.36279,1.6604 -0.94465,2.22004 h -2.7404 -2.4753 v 0.8599 0.63973 h -3.99975 v -0.63973 -0.8599 H 91.363931 88.359979 v 0.8599 0.63973 h -3.999754 v -0.63973 -0.8599 H 69.309463 v 0.8599 0.63973 h -3.999756 v -0.63973 -0.8599 h -4.999178 v -14.00019 h 4.999178 z"
       id="rect1978"
       inkscape:connector-curvature="0"
       sodipodi:nodetypes="ssssccccccccccssssccccccccccccccccscccccccccccccccccccccccccccsccssccccccccccccccccccccccccccccccccccccccccccccccccccccccccccccccccccccccccccccccccccccccccccccccccccccccccccccccccccccccccccccccccccccccccccccccccccccccccccccccccccccccccccccccccccccccccccccccccccccccccccccccccccccccccccccccccccccccccccccccccccccccccccccccccccccccscccccccccccccccccccsccccccccccccccccccccccccc" />
  </g>
</svg>
